<!-- icon666.com - MILLIONS OF FREE VECTOR ICONS --><svg id="Layer_35" enable-background="new 0 0 64 64" viewBox="0 0 64 64" xmlns="http://www.w3.org/2000/svg"><path d="m61 10c0-3.86-3.14-7-7-7h-6c-3.86 0-7 3.14-7 7v7h13c3.86 0 7-3.14 7-7zm-5 5h-2v-2h2zm-10-10h10v2h-10zm0 4h10v2h-10zm2 6h-2v-2h2zm4 0h-2v-2h2z" fill="#ffffff"></path><path d="m49 34c0-5.524-1.988-10.828-5.584-15h-4.416v-3.959c-3.837-2.637-8.316-4.041-13-4.041-12.682 0-23 10.318-23 23 0 6.472 2.739 12.644 7.518 17h7c-6.23-3.122-10.518-9.57-10.518-17 0-10.477 8.523-19 19-19s19 8.523 19 19-8.523 19-19 19h-24v4h24c12.682 0 23-10.318 23-23z" fill="#ffffff"></path><circle cx="26" cy="34" r="1"></circle><path d="m43 34c0-9.374-7.626-17-17-17s-17 7.626-17 17 7.626 17 17 17 17-7.626 17-17zm-17 15c-8.271 0-15-6.729-15-15s6.729-15 15-15 15 6.729 15 15-6.729 15-15 15z" fill="#ffffff"></path><path d="m52 53h-9.779c-1.916 1.638-4.078 2.996-6.428 4h16.207v2.234l7.056-4.234-7.056-4.234z" fill="#ffffff"></path><path d="m35 33h3.949c-.217-2.833-1.341-5.411-3.088-7.447l-2.791 2.791-1.414-1.414 2.791-2.791c-2.036-1.747-4.615-2.871-7.447-3.088v3.949h-2v-3.949c-2.833.217-5.411 1.341-7.447 3.088l2.791 2.791-1.414 1.414-2.791-2.791c-1.747 2.036-2.871 4.615-3.088 7.447h3.949v2h-3.949c.217 2.833 1.341 5.411 3.088 7.447l2.791-2.791 1.414 1.414-2.791 2.791c2.036 1.747 4.615 2.871 7.447 3.088v-3.949h2v3.949c2.833-.217 5.411-1.341 7.447-3.088l-2.791-2.791 1.414-1.414 2.791 2.791c1.747-2.036 2.871-4.615 3.088-7.447h-3.949zm-5.707 5.707-2.008-2.008c-.391.188-.823.301-1.285.301-1.654 0-3-1.346-3-3 0-1.302.839-2.402 2-2.816v-4.184h2v4.184c1.161.414 2 1.514 2 2.816 0 .462-.113.894-.301 1.285l2.008 2.008z" fill="#ffffff"></path></svg>