<svg width="42" height="41" viewBox="0 0 42 41" fill="none" xmlns="http://www.w3.org/2000/svg">
<path d="M20.791 19.6652H16.5641V13.0452H21.6078C24.1807 13.0452 25.6101 14.1652 25.6101 16.2252C25.6101 18.4652 23.9153 19.6652 20.791 19.6652ZM21.5466 21.9252H16.5641V29.2052H21.7916C24.9771 29.2052 26.6516 27.9452 26.6516 25.5452C26.6516 23.1452 24.9159 21.9252 21.5466 21.9252ZM41.6399 7.28516V34.0452C41.6399 37.6652 38.5769 40.6652 34.8808 40.6652H7.55884C3.86281 40.6652 0.799805 37.6652 0.799805 34.0452V7.28516C0.799805 3.66516 3.86281 0.665161 7.55884 0.665161H34.8808C38.5769 0.665161 41.6399 3.66516 41.6399 7.28516ZM29.3878 25.6652C29.3878 22.9052 27.5092 20.9252 24.63 20.5652V20.4452C26.672 20.0852 28.2852 18.0852 28.2852 15.9252C28.2852 12.8252 25.8348 10.7652 22.2408 10.7652H13.9299V31.4852H22.1796C26.6924 31.4852 29.3878 29.3052 29.3878 25.6652Z" fill="white"/>
</svg>
