<svg width="28" height="40" viewBox="0 0 28 40" fill="none" xmlns="http://www.w3.org/2000/svg">
<g clip-path="url(#clip0_542_13918)">
<path d="M7.5066 39.522C11.229 39.522 14.2319 36.5809 14.2319 32.935V26.348H7.5066C3.7842 26.348 0.78125 29.2892 0.78125 32.935C0.78125 36.5809 3.7842 39.522 7.5066 39.522Z" fill="#dedede"/>
<path d="M0.78125 19.7611C0.78125 16.1152 3.7842 13.1741 7.5066 13.1741H14.2319V26.3481H7.5066C3.7842 26.3481 0.78125 23.4069 0.78125 19.7611Z" fill="#dedede"/>
<path d="M0.78125 6.58701C0.78125 2.94118 3.7842 0 7.5066 0H14.2319V13.174H7.5066C3.7842 13.174 0.78125 10.2328 0.78125 6.58701Z" fill="#dedede"/>
<path d="M14.2324 0H20.9578C24.6802 0 27.6831 2.94118 27.6831 6.58701C27.6831 10.2328 24.6802 13.174 20.9578 13.174H14.2324V0Z" fill="#dedede"/>
<path d="M27.6831 19.7611C27.6831 23.4069 24.6802 26.3481 20.9578 26.3481C17.2354 26.3481 14.2324 23.4069 14.2324 19.7611C14.2324 16.1152 17.2354 13.1741 20.9578 13.1741C24.6802 13.1741 27.6831 16.1152 27.6831 19.7611Z" fill="#dedede"/>
</g>
<defs>
<clipPath id="clip0_542_13918">
<rect width="27.451" height="40" fill="#dedede" transform="translate(0.274414)"/>
</clipPath>
</defs>
</svg>
