<svg width="36" height="41" viewBox="0 0 36 41" fill="none" xmlns="http://www.w3.org/2000/svg">
<g clip-path="url(#clip0_542_13834)">
<path fill-rule="evenodd" clip-rule="evenodd" d="M5.42217 38.8197C5.42937 38.9289 5.37805 38.9508 5.29637 38.8926C5.12301 38.769 4.92868 38.6623 4.78849 38.5077C4.08564 37.7313 3.57682 36.8451 3.33586 35.8175C3.23791 35.3988 3.23103 34.9791 3.26201 34.5463C3.32178 33.7168 3.26201 32.8894 3.03858 32.0814C3.02387 32.0276 2.99039 31.9787 2.93155 31.8579L2.50597 32.3771L2.45465 32.3461C2.46748 31.1504 2.42648 29.9581 2.21275 28.7646L1.74179 29.878L1.66356 29.8643C1.62882 29.6862 1.59002 29.5088 1.55967 29.3301C1.38223 28.2824 1.35251 27.2231 1.41102 26.1689C1.50177 24.5385 1.77089 22.9388 2.53038 21.4633C2.74411 21.0484 3.00259 20.6613 3.34681 20.3074C3.17095 20.3602 2.99258 20.4059 2.81984 20.4682C2.63865 20.5333 2.4631 20.6143 2.24655 20.7045C2.4728 20.1099 2.77352 19.5886 3.16437 19.1248C3.55022 18.667 3.96235 18.2311 4.37855 17.7682L3.41253 17.4071L3.34431 17.343C3.41128 17.3079 3.4845 17.281 3.54396 17.2359C4.48713 16.5209 5.56643 16.1138 6.70174 15.8303C7.06255 15.7404 6.99934 15.8074 7.02469 15.43C7.06568 14.8192 7.13234 14.2102 7.18835 13.6003L7.24405 13.5956L8.07238 15.1731C7.98226 12.7542 8.15625 10.3718 8.82435 8.04235L8.88099 8.04173C8.88538 8.11965 8.89539 8.19757 8.89257 8.27517C8.87286 8.78588 8.92261 9.28437 9.12727 9.76003C9.26934 10.0905 9.4765 10.3618 9.81478 10.568C9.95654 9.14043 10.338 7.78919 10.7874 6.41417L11.4608 7.17366C11.5611 6.23578 11.7787 5.31419 12.1086 4.4305L13.0674 5.65219L13.636 2.96192L14.0397 3.84751C14.0115 5.25414 14.699 6.33156 15.6631 7.31166L14.5964 7.85053C15.7148 7.75946 16.519 7.37393 17.092 6.65982C17.2613 6.39477 17.4572 6.14286 17.5936 5.86185C17.7986 5.44065 17.7829 5.42907 17.398 5.1709C16.3685 4.4812 15.6707 3.54522 15.3017 2.36328C15.742 1.79813 16.3528 1.50335 16.9897 1.27867L17.071 2.54197C17.2416 2.45153 17.3639 2.38926 17.4841 2.32292C18.5412 1.74086 19.6668 1.34908 20.849 1.11719C21.0765 1.07276 21.3062 1.04146 21.5356 1.00798C21.5616 1.00423 21.5919 1.02707 21.6201 1.0374L20.5148 1.91861C20.1108 2.24062 19.7898 2.63522 19.5109 3.06644L19.4718 3.10556L19.4712 3.14436C19.4315 3.18567 19.3795 3.2204 19.3535 3.26891C19.1429 3.66226 18.9258 4.05248 18.7346 4.45554C18.6232 4.69024 18.5562 4.9459 18.4654 5.20313L20.2423 5.37243L20.2736 5.44033C18.9971 6.58973 17.7185 7.73693 16.5318 9.0284L17.8027 9.20239C17.4425 9.34978 17.118 9.46181 16.8125 9.6117C15.9229 10.0482 15.0908 10.5621 14.4893 11.3832C14.0237 12.0191 13.5396 12.6415 13.0636 13.2695C12.6919 12.8972 12.3204 12.5245 11.9465 12.1489L11.6611 13.4517L12.4544 14.1655C12.4124 14.2459 12.368 14.3251 12.3289 14.4067C12.081 14.9271 11.8122 15.4388 11.5935 15.9711C11.366 16.5256 11.3147 17.1233 11.2721 17.7182C11.2233 18.4013 11.1472 19.0832 11.1256 19.7669C11.0997 20.5953 11.095 21.4261 11.2349 22.2494C11.3578 22.9742 11.452 23.7045 11.5963 24.4249C11.6855 24.8696 11.8441 25.3002 11.9721 25.737L12.0256 25.7264L12.5548 24.6646L12.6077 24.6781C12.7986 25.5937 13.0705 26.4843 13.4601 27.3339C13.8478 28.1794 14.2944 28.9906 14.9975 29.6468V28.5265L15.0758 28.5274C15.2194 28.6022 15.3637 28.6764 15.5045 28.7565C16.4913 29.3192 17.5158 29.8131 18.5706 30.2348C19.8483 30.7455 21.1203 31.269 22.3339 31.9212C22.7097 32.123 23.0877 32.3383 23.416 32.6068C24.1611 33.217 24.8761 33.8645 25.6034 34.4969L25.543 34.6393C25.3048 35.1156 25.0626 35.5896 24.8279 36.0678C24.6208 36.4899 24.4218 36.9158 24.219 37.3402L24.1664 37.332V35.8616C24.0829 36.0503 24.0497 36.2412 23.999 36.4274C23.7942 37.1835 23.5852 37.9386 23.3719 38.6924C23.3071 38.9195 23.1444 39.0504 22.9209 39.1392C22.6593 39.2431 22.4152 39.2099 22.1643 39.1308L22.1665 39.132L22.0939 39.0985C21.7127 38.8147 21.3319 38.5303 20.9498 38.2474C20.8522 38.1754 20.7495 38.11 20.6531 38.0443L20.7915 39.4515L20.7179 39.4894C19.1589 38.2186 17.2525 37.5886 15.5245 36.6298C14.9628 36.2721 14.3995 35.9173 13.8403 35.5552C13.6911 35.4585 13.5552 35.3418 13.38 35.2091L13.4657 35.9016L13.4188 35.9345L11.8219 34.8383C11.8498 34.6208 11.8914 34.404 11.903 34.1858C11.9236 33.7875 11.9731 33.3829 11.9277 32.9904C11.8178 32.0426 11.3253 31.3153 10.5389 30.7765C10.2189 30.5568 9.91113 30.3197 9.61701 30.0664C9.45522 29.9275 9.33005 29.7428 9.29406 29.5432L10.2116 29.6255C9.9387 29.1167 9.66708 28.6664 9.45147 28.1907C9.23555 27.7135 9.02964 27.2222 9.05624 26.6189C9.21677 26.837 9.32098 27.0398 9.55974 27.1364C9.47807 26.3322 9.59542 25.5709 9.72653 24.8154C9.85703 24.061 10.0385 23.3153 10.1978 22.5655C9.64173 23.5393 9.07439 24.5053 8.90384 25.681L8.44477 25.1978C8.42474 25.4895 8.38625 25.753 8.3922 26.0158C8.40534 26.6048 8.42756 27.1943 8.46918 27.782C8.51643 28.4523 8.69949 29.091 8.96423 29.7091C9.2659 30.4147 9.78286 30.9636 10.2616 31.5422C10.5661 31.9096 10.8268 32.3079 10.896 32.7917C10.9707 33.3153 11.0199 33.8422 11.0803 34.368L11.2017 36.1467C10.8534 36.2183 9.88081 35.9833 9.67678 35.7618L9.84044 35.6744C9.66551 35.5233 9.47212 35.3916 9.32504 35.2201C9.10161 34.96 9.0578 34.6243 9.00554 34.2957C8.99208 34.2112 8.92355 34.1358 8.88068 34.0563C8.79932 34.1301 8.6923 34.1905 8.64473 34.2819C8.60468 34.3586 8.61438 34.4759 8.63628 34.567C8.67665 34.7363 8.72828 34.9059 8.79869 35.0645C9.01117 35.5452 9.24149 36.0177 9.45178 36.499C9.71026 37.0895 9.92274 37.6938 9.90835 38.3522C9.90396 38.5453 9.86454 38.5816 9.68679 38.5105C9.44704 38.4128 9.21189 38.3041 8.98207 38.1848C8.8012 38.0922 8.63034 37.9804 8.43288 37.8643V38.0718L8.41692 38.0853C8.36059 38.0568 8.29644 38.0377 8.24856 37.9986C8.04516 37.8324 7.84645 37.66 7.64617 37.4901L7.64742 37.4916L7.60674 37.4103L7.24781 36.5172L7.21526 36.6486L7.15737 36.7706C6.88763 36.2762 6.74555 35.7812 6.67264 35.2604C6.54152 35.7057 6.68172 36.1307 6.74055 36.5866L6.85884 36.4583C6.96116 36.6646 7.04941 36.8645 7.15706 37.0539C7.26565 37.2447 7.3855 37.43 7.51443 37.6077C7.57952 37.6982 7.67496 37.7667 7.75632 37.8449C7.94564 38.3218 8.14091 38.7972 8.23636 39.3555L7.21026 39.0513C6.79656 38.866 6.37348 38.6974 6.04083 38.3719C6.02456 38.3563 5.99296 38.3566 5.96855 38.3494L5.95353 38.2984L5.93882 38.3084L5.96792 38.35L6.30902 39.061L6.28461 39.1111L5.75169 38.9252L5.42217 38.8197ZM5.83962 38.1766L5.43844 37.2088L5.3067 37.2986L5.03727 36.0371C4.7791 36.5313 5.28605 37.9407 5.83962 38.1766ZM10.2523 22.4337L10.2466 22.4171L10.2325 22.4209L10.2382 22.4375L10.2523 22.4337Z" fill="#dedede"/>
<path fill-rule="evenodd" clip-rule="evenodd" d="M25.6042 34.4978C24.8769 33.8654 24.1619 33.2182 23.4168 32.6077C23.0885 32.3392 22.7105 32.1239 22.3347 31.9221C21.1215 31.2702 19.8491 30.7467 18.5714 30.2357C17.5166 29.814 16.4921 29.3201 15.5053 28.7574C15.3645 28.6773 15.2202 28.6031 15.0766 28.5283L14.9984 28.5274V29.6477C14.2952 28.9918 13.849 28.1803 13.4609 27.3348C13.0713 26.4855 12.7994 25.5946 12.6085 24.679L12.5556 24.6655L12.0264 25.7273L11.9729 25.7379C11.8453 25.3011 11.6863 24.8705 11.5971 24.4258C11.4528 23.7054 11.3587 22.9751 11.2357 22.2503C11.0961 21.427 11.1008 20.5962 11.1265 19.7678C11.1477 19.0841 11.2241 18.4019 11.2729 17.7191C11.3155 17.1245 11.3668 16.5268 11.5943 15.972C11.8127 15.4397 12.0818 14.928 12.3297 14.4076C12.3688 14.3256 12.4132 14.2468 12.4552 14.1664L12.5334 14.2239C13.0294 14.6323 13.5304 15.0348 14.0167 15.4547C14.1093 15.5345 14.1788 15.6763 14.1982 15.7996C14.2357 16.0355 14.2326 16.2787 14.2407 16.519C14.2542 16.922 14.3587 17.0929 14.7389 17.2146C16.0376 17.6296 17.3597 17.8643 18.731 17.7044C19.1128 17.6596 19.4326 17.5154 19.6548 17.1946C19.8513 16.9122 20.0417 16.6256 20.2259 16.335C20.4358 16.002 20.4928 15.9795 20.8777 16.0377C21.0511 16.064 21.1074 16.1444 21.1033 16.3062C21.0971 16.5528 21.1021 16.7997 21.0992 17.0463C21.0933 17.5952 21.3947 17.9093 21.8978 18.0254C22.3266 18.124 22.7644 18.1966 23.2021 18.2379C23.7567 18.2899 24.3184 18.3399 24.8597 18.1343C24.7274 18.477 24.5963 18.82 24.4623 19.1623C24.4035 19.3128 24.3497 19.4668 24.2742 19.6092C24.1641 19.817 24.1281 20.0032 24.3515 20.1593L24.3919 20.2025L24.3916 20.2016L24.498 20.4053C24.749 20.9163 25.0281 21.416 25.2434 21.9418C25.5826 22.771 25.7028 23.65 25.7262 24.5428C25.7647 25.5912 25.5645 26.5966 25.1689 27.5636C25.0538 27.8443 24.9517 28.1534 24.7583 28.3756C23.8878 29.3782 22.7806 29.8336 21.4463 29.6962L21.0617 29.6514C21.0802 29.6905 21.1114 29.7222 21.1503 29.7412C22.0481 30.2635 22.9455 30.7861 23.8443 31.3068C23.8928 31.335 23.9494 31.3488 24.002 31.3694C24.1697 31.5168 24.3387 31.6626 24.5052 31.8116L25.2997 32.526L25.3607 32.5686C25.6299 32.3367 25.8883 32.1026 26.1584 31.8836C26.9573 31.2349 27.836 30.7201 28.7745 30.2958C29.4595 29.9863 30.1201 29.6217 30.7917 29.2819C30.8308 29.2622 30.8711 29.2437 30.9675 29.2493L30.7275 30.1659L30.6752 30.3505L30.659 30.3593L30.6662 30.3665L30.6749 30.3502C30.9863 30.2025 31.3067 30.0714 31.6059 29.9024C31.8544 29.7619 32.0775 29.5773 32.3122 29.4127C32.2677 29.5128 32.2314 29.6176 32.177 29.7121C31.7714 30.4181 31.2294 31.0124 30.6389 31.565C30.4709 31.7221 30.2897 31.8651 30.0919 32.0341L30.1426 31.1413C29.2771 31.8614 28.552 32.6349 27.8501 33.4323L27.7975 33.4154L27.7249 32.3686C26.9617 33.0558 26.2075 33.7004 25.6042 34.4978ZM15.3241 18.5759C15.3354 18.6835 15.3373 18.7605 15.3523 18.835C15.4587 19.3726 15.7647 19.7847 16.1865 20.1127C17.0565 20.7899 18.0748 21.1122 19.1416 21.2906C20.1029 21.4514 21.0745 21.3841 22.0427 21.3588C22.0862 21.3578 22.1291 21.3437 22.2123 21.3281L21.9902 20.8628C21.8797 20.6359 21.7633 20.4118 21.6581 20.1825C21.5818 20.016 21.6334 19.9008 21.7918 19.7913C22.1247 19.561 22.4405 19.3044 22.7762 19.0487C22.5464 18.8576 22.2621 18.744 21.9639 18.7242C21.1355 18.6604 20.3053 18.5959 19.4748 18.5821C18.1036 18.5593 16.7317 18.5759 15.3241 18.5759ZM19.6873 24.228L19.764 24.2127C19.8754 23.988 20.0015 23.7693 20.0944 23.5371C20.2083 23.2517 20.3157 22.9798 20.6364 22.8555C20.8104 22.7882 20.9684 22.6797 21.1334 22.5898L21.1174 22.5285C19.6776 22.6177 18.2672 22.4606 16.8487 22.0022C16.8866 22.6105 17.0408 23.1256 17.2949 23.6438L17.8423 23.0342C18.0144 23.4992 18.1298 23.952 18.4794 24.3441L19.1488 23.3556L19.6873 24.228ZM20.9725 29.633L20.9688 29.6214L20.9522 29.618L20.9569 29.6377L20.9725 29.633ZM13.0648 13.2701C13.5407 12.6418 14.0245 12.0194 14.4905 11.3838C15.0919 10.5627 15.924 10.0488 16.8137 9.61229C17.1191 9.46239 17.4433 9.35036 17.8038 9.20297L16.533 9.02898C17.7196 7.73752 18.9982 6.59031 20.2747 5.44092L20.2434 5.37301L18.4666 5.20372C18.5576 4.9468 18.6243 4.69082 18.7357 4.45613C18.9269 4.05338 19.1441 3.66285 19.3547 3.26949C19.3806 3.22099 19.4326 3.18594 19.4723 3.14495C19.538 3.17092 19.6019 3.20659 19.6701 3.2213C20.6342 3.43003 21.599 3.63468 22.5628 3.84372C22.8257 3.90067 22.8298 3.90224 22.8298 3.6206V2.17017C23.1471 2.08317 23.4612 1.98053 23.7826 1.91231C24.5266 1.75309 25.273 1.60557 26.0216 1.46983C26.395 1.40317 26.7758 1.3797 27.1845 1.33276L26.3928 2.69965L26.4372 2.73125C26.7739 2.63205 27.1066 2.51408 27.4483 2.43897C27.7922 2.36293 28.1452 2.32976 28.5273 2.27281V2.82857C29.4658 2.71185 30.3698 2.73156 31.2983 2.90774C31.2379 3.03041 31.1881 3.12648 31.1428 3.22474C30.9844 3.56584 30.8286 3.9085 30.6693 4.24865C30.6014 4.39385 30.6355 4.47365 30.7963 4.51996C31.175 4.62918 31.5505 4.75091 31.9267 4.86951C31.9999 4.89266 32.0706 4.92364 32.172 4.96214C32.0093 5.16053 31.8531 5.33765 31.7117 5.52572C31.3108 6.05708 30.9156 6.59282 30.52 7.12824C30.4981 7.15797 30.4931 7.1999 30.48 7.23652L29.6823 8.47948C29.4389 8.89317 29.1945 9.30655 28.9541 9.72213C28.9366 9.75248 28.9488 9.79973 28.9476 9.83947C28.8283 10.0132 28.6913 10.1774 28.5927 10.3621C28.1292 11.2326 27.662 12.1023 27.2236 12.9854C26.794 13.8512 26.3965 14.7328 25.9872 15.6084C25.9628 15.6603 25.9566 15.7201 25.9419 15.7764L23.9644 15.3721C23.7482 15.0767 23.4268 15.0501 23.1815 15.3073C22.6304 15.3248 22.0793 15.3521 21.528 15.3561C21.2451 15.3583 20.9544 15.3536 20.6799 15.2929C19.8319 15.1058 18.9901 14.8902 18.1455 14.6858C18.0062 14.3479 17.5221 14.2959 17.2846 14.5097L17.2264 14.5078C16.18 14.3297 15.1295 14.2067 14.0646 14.2496C14.0151 14.2515 13.9507 14.2193 13.915 14.182C13.629 13.8807 13.3476 13.5746 13.0648 13.2701ZM16.6631 13.8791L16.7673 13.834C17.2173 13.5984 17.6842 13.4566 18.1996 13.5612C18.2995 13.5815 18.4027 13.5868 18.5229 13.6012C18.2203 13.1396 17.458 13.0986 17.0352 13.3731C16.8509 13.4926 16.6735 13.6269 16.6631 13.8791ZM18.6017 12.8436C18.4202 12.4086 17.8479 12.1933 17.3353 12.3345C16.9054 12.4524 16.5001 12.9131 16.5452 13.2717C17.1191 12.6233 17.8128 12.5651 18.6017 12.8436ZM24.2561 13.6735C24.8153 13.7258 25.3003 13.9101 25.6468 14.4014C25.6718 13.9952 25.5138 13.7567 25.1849 13.5768C24.8769 13.4081 24.5027 13.4551 24.2561 13.6735ZM25.2421 15.2344C25.1949 14.7819 25.0534 14.4164 24.6031 14.2875C24.3716 14.2211 24.1372 14.259 23.9407 14.4461C24.5302 14.6082 24.7386 14.6267 25.2421 15.2344Z" fill="#dedede"/>
<path fill-rule="evenodd" clip-rule="evenodd" d="M25.7263 24.5422C25.7025 23.6494 25.5826 22.7704 25.2434 21.9411C25.0281 21.4154 24.749 20.9157 24.498 20.4046L24.3916 20.2009C24.5828 20.2585 24.7728 20.3205 24.9655 20.3721C25.2462 20.4475 25.5263 20.5345 25.8126 20.5783C25.9653 20.6018 26.1309 20.5467 26.2898 20.5226C26.3512 20.5132 26.4106 20.4916 26.5058 20.4666L26.4285 20.8493C27.0675 20.5523 27.53 20.0958 27.9039 19.5613C28.2763 19.0287 28.5949 18.4585 28.9304 17.9147L29.0802 18.1672C29.3503 17.7447 29.1641 16.4971 28.7185 15.7545C28.8318 15.7545 28.9253 15.7479 29.0177 15.7554C29.6038 15.803 30.2015 15.7974 30.7316 16.1115C31.1518 16.3603 31.4519 16.7133 31.6532 17.1793L31.2044 17.1542C31.6516 17.878 31.8237 18.6275 31.7536 19.4853L31.4078 19.2105C31.3912 19.2925 31.3793 19.377 31.3565 19.4583C31.2873 19.7015 31.2113 19.9424 31.1443 20.1862C31.1265 20.2513 31.1318 20.3223 31.1265 20.3906C31.1991 20.3924 31.2792 20.4156 31.3434 20.3928C31.7098 20.2626 32.0722 20.1211 32.4361 19.9844C32.5879 19.9274 32.7425 19.8774 32.8924 19.8157C33.0507 19.7506 33.1095 19.8069 33.0986 19.9665C32.6865 20.1102 32.2737 20.2532 31.8622 20.3987C31.8096 20.4175 31.7614 20.4497 31.7114 20.4757C32.2327 20.4178 32.4396 20.4453 32.7062 20.6315C32.9002 20.767 32.9284 20.9357 32.7559 21.1006C32.622 21.2286 32.4615 21.33 32.3062 21.4332C32.2133 21.4955 32.1078 21.539 31.9789 21.6063L32.1579 21.6742C31.8738 21.8607 31.6003 22.0216 31.3484 22.2109C31.0351 22.4465 30.7206 22.6868 30.4427 22.9613C30.2212 23.18 30.2888 23.3327 30.5989 23.3578C30.9791 23.3884 31.3618 23.3897 31.7433 23.4028L31.9883 23.4031L31.8074 23.6369L31.7984 23.6519L31.8062 23.636C31.9492 23.636 32.0941 23.6497 32.2343 23.6303C32.3225 23.6178 32.4464 23.5762 32.4796 23.5102C32.5513 23.3668 32.6671 23.349 32.7935 23.3252C33.0407 23.2786 33.2892 23.2373 33.5345 23.1819C33.7307 23.1375 33.9235 23.0755 34.1175 23.0214L34.1463 23.0621L33.7119 23.4667L33.6468 23.2282C32.9578 23.5449 32.2771 23.8319 31.6225 24.1695C31.3067 24.3326 31.0404 24.591 30.7516 24.8066L30.7356 24.8248L30.7538 24.8091L30.9387 24.8223L30.2149 25.4328C30.3304 25.5333 30.423 25.6653 30.5473 25.7104C30.781 25.7955 31.0307 25.8615 31.278 25.8794C31.6507 25.906 32.0268 25.8844 32.4014 25.8831L32.4111 25.8011L32.1179 25.6807L33.6118 25.5007C32.5926 26.1278 31.4163 26.0618 30.2894 26.2508C30.2913 26.5556 30.5466 26.6992 30.71 26.9086L30.5883 27.0094L30.9419 27.306C31.0091 27.4118 30.9472 27.4193 30.8599 27.4237C30.2096 27.4562 29.5803 27.3461 28.977 27.1139C28.6093 26.9724 28.2579 26.7887 27.8983 26.626C27.8645 26.6107 27.8241 26.6097 27.7866 26.6019L27.781 26.5875L27.7697 26.5844L27.7856 26.6029L27.9421 26.954C27.735 26.9149 27.529 26.8551 27.3203 26.841C26.8362 26.8085 26.3781 26.9424 25.9275 27.1036L25.7622 27.1533C25.7754 26.9865 25.7989 26.8194 25.7992 26.6523C25.8007 25.9742 25.796 25.2964 25.7898 24.6183C25.7901 24.5932 25.7485 24.5676 25.7263 24.5422Z" fill="#dedede"/>
<path fill-rule="evenodd" clip-rule="evenodd" d="M25.6041 34.4978C26.2074 33.7007 26.9616 33.0558 27.7245 32.3686L27.7971 33.4153L27.8497 33.4322C28.5516 32.6352 29.2767 31.8613 30.1422 31.1413L30.0915 32.0341C30.2893 31.8651 30.4705 31.7221 30.6385 31.565C31.229 31.0123 31.771 30.4181 32.1766 29.7121C32.2307 29.6176 32.2673 29.5128 32.3118 29.4126L32.3503 29.4108L32.3562 29.4158C32.2257 29.8417 32.109 30.2723 31.9616 30.6922C31.6387 31.611 31.0275 32.3611 30.5024 33.1634C29.9742 33.9711 29.4904 34.8079 28.9903 35.634C28.9515 35.6982 28.94 35.7786 28.9159 35.8515L28.9005 35.874L28.9212 35.8568C29.1506 35.7382 29.3793 35.6184 29.6093 35.501C29.8212 35.3928 30.0346 35.287 30.2815 35.2131L30.1247 35.5088C29.5771 36.5637 29.0354 37.6218 28.4793 38.6723C28.2578 39.091 28.0112 39.4968 27.7608 39.899C27.7176 39.9687 27.5978 40.0285 27.513 40.0288C26.4011 40.0354 25.2893 40.0113 24.1781 40.0351C23.3739 40.052 22.7633 39.6746 22.1907 39.1823L22.1641 39.1326C22.4153 39.2118 22.6594 39.2449 22.9207 39.141C23.1442 39.0522 23.3069 38.9214 23.3717 38.6942C23.5851 37.9404 23.7941 37.1854 23.9988 36.4292C24.0495 36.243 24.0826 36.0518 24.1662 35.8634V37.3339L24.2188 37.342C24.4215 36.9177 24.6206 36.4915 24.8277 36.0696C25.0624 35.5915 25.3046 35.1174 25.5428 34.6411L25.6041 34.4978Z" fill="#dedede"/>
<path fill-rule="evenodd" clip-rule="evenodd" d="M11.8233 34.8395L13.4201 35.9357L13.4671 35.9028L13.3813 35.2103C13.5566 35.343 13.6924 35.4597 13.8417 35.5564C14.4009 35.9182 14.9641 36.2733 15.5259 36.631L14.3323 36.9562C15.7246 37.5523 16.9807 38.3925 17.5843 39.9831C17.1741 40.0104 16.8001 40.0426 16.4255 40.0592C15.6204 40.0942 14.8152 40.1274 14.0097 40.1499C12.8465 40.1825 11.6831 40.2044 10.5199 40.2319C10.1819 40.2397 9.84397 40.2466 9.50664 40.2601C8.96902 40.2814 8.5475 40.0745 8.23927 39.6339C8.20297 39.5816 8.15978 39.5344 8.10877 39.4709L7.73639 39.7294C7.51577 39.5416 7.32676 39.3279 7.21191 39.0531L8.23801 39.3573C8.14257 38.799 7.9473 38.3237 7.75798 37.8468L7.64783 37.4919C7.8481 37.6618 8.04681 37.8339 8.25022 38.0004C8.2981 38.0395 8.36193 38.0589 8.41857 38.0871L8.44549 38.13L8.43454 38.0736V37.8662C8.63199 37.9823 8.80285 38.094 8.98373 38.1866C9.21355 38.3059 9.4487 38.4146 9.68845 38.5124C9.86619 38.5834 9.90562 38.5468 9.91 38.354C9.9244 37.6956 9.7116 37.091 9.45344 36.5008C9.24283 36.0192 9.01252 35.547 8.80035 35.0664C8.73123 34.9058 8.67687 34.7392 8.63794 34.5688C8.61635 34.4774 8.60633 34.3604 8.64639 34.2837C8.69395 34.1924 8.80098 34.1323 8.88234 34.0581C8.92552 34.1376 8.99374 34.2133 9.0072 34.2975C9.05946 34.6261 9.10327 34.9619 9.3267 35.2219C9.47378 35.3931 9.66717 35.5248 9.8421 35.6763L9.67843 35.7636C9.88247 35.9851 10.8551 36.2201 11.2033 36.1485L11.0819 34.3698L11.199 34.4302C11.4071 34.5654 11.6149 34.7027 11.8233 34.8395Z" fill="#dedede"/>
<path fill-rule="evenodd" clip-rule="evenodd" d="M30.9428 27.3061L30.5891 27.0094L30.7109 26.9087C30.5478 26.6993 30.2925 26.5557 30.2903 26.2509C31.4175 26.0619 32.5935 26.1279 33.6127 25.5008L32.1188 25.6807L32.412 25.8012L32.4023 25.8832C32.0277 25.8844 31.6515 25.906 31.2788 25.8794C31.0316 25.8616 30.7819 25.7956 30.5482 25.7105C30.4239 25.6651 30.3316 25.5333 30.2158 25.4329L30.9396 24.8224L30.7547 24.8092L30.7525 24.8067C31.041 24.5914 31.3073 24.3326 31.6234 24.1699C32.2777 23.8322 32.9587 23.5453 33.6477 23.2286L33.7128 23.4671L34.1472 23.0624L34.1184 23.0217C33.9241 23.0759 33.7316 23.1378 33.5354 23.1823C33.2901 23.2377 33.0416 23.279 32.7944 23.3256C32.6679 23.3494 32.5522 23.3675 32.4805 23.5105C32.4473 23.5766 32.3237 23.6182 32.2352 23.6307C32.095 23.6504 31.9501 23.6363 31.8071 23.6363L31.8083 23.6373L31.9892 23.4035L31.7442 23.4032C31.3627 23.3901 30.98 23.3888 30.5998 23.3582C30.29 23.3331 30.2224 23.1807 30.4436 22.9617C30.7215 22.6869 31.0357 22.4466 31.3493 22.2113C31.6012 22.0219 31.8747 21.8611 32.1588 21.6746L31.9798 21.6067C32.1087 21.5394 32.2142 21.4959 32.3071 21.4336C32.4624 21.33 32.6229 21.2287 32.7568 21.101C32.9292 20.9361 32.9011 20.7677 32.7071 20.6319C32.4404 20.4457 32.2336 20.4185 31.7123 20.4761C31.7626 20.4501 31.8105 20.4179 31.8631 20.3991C32.2746 20.2536 32.6873 20.1106 33.0995 19.9669C33.4362 19.9804 33.7763 19.9675 34.1081 20.0142C34.5643 20.0783 34.8071 20.4335 35.0578 20.764L35.0306 20.8137L34.5718 20.666C34.8441 21.131 35.0885 21.5679 35.1054 22.1058C35.0703 22.0864 35.0387 22.0789 35.0237 22.0585C35.0046 22.0329 34.9987 21.9975 34.9755 21.9353C34.8491 22.2385 34.789 22.4992 34.6457 22.7007C34.4041 23.0411 34.4141 23.3372 34.5943 23.7052C34.7233 23.9684 34.7286 24.2922 34.789 24.5892L34.7133 24.6193L34.5199 24.3814C34.4958 24.7898 34.4908 25.1569 34.2899 25.4911L34.2019 25.2892C34.0586 25.4213 33.9159 25.5412 33.7901 25.6767C33.7557 25.7136 33.7554 25.8009 33.767 25.8597C33.8327 26.2005 33.9456 26.5378 33.8173 26.8983L33.6684 26.8289C33.4597 27.2867 33.0829 27.5192 32.6157 27.5708C32.1081 27.6268 31.6087 27.5373 31.1283 27.3562C31.0679 27.3339 31.0044 27.3227 30.9428 27.3061Z" fill="#dedede"/>
<path fill-rule="evenodd" clip-rule="evenodd" d="M23.965 15.3718L25.9424 15.7761L26.1082 15.8305C26.2437 15.8747 26.2938 15.9698 26.2531 16.1025C26.2021 16.2693 26.1542 16.4398 26.0773 16.595C26.0356 16.6795 25.9477 16.7621 25.8613 16.7984C25.7114 16.8616 25.6229 16.9602 25.5572 17.1035C25.4658 17.3032 25.3735 17.506 25.2511 17.6875C25.1416 17.8502 24.992 17.986 24.86 18.134C24.3186 18.3396 23.7569 18.2896 23.2024 18.2376C22.7634 18.1958 22.3276 18.1248 21.8981 18.0251C21.3952 17.909 21.0935 17.5948 21.0995 17.046C21.1023 16.7994 21.0973 16.5525 21.1035 16.3059C21.1076 16.1441 21.0513 16.0637 20.8779 16.0374C20.4933 15.9792 20.4364 16.0014 20.2261 16.3347C20.042 16.6253 19.8515 16.9119 19.655 17.1943C19.4328 17.515 19.1133 17.6596 18.7312 17.7041C17.3603 17.8637 16.0381 17.629 14.7392 17.2143C14.3589 17.0926 14.2547 16.9217 14.241 16.5187C14.2328 16.2783 14.236 16.0355 14.1984 15.7992C14.179 15.6763 14.1095 15.5345 14.0169 15.4544C13.5306 15.0344 13.0296 14.632 12.5336 14.2236L12.4554 14.1661L11.6621 13.4523L11.9475 12.1495L13.0647 13.2701C13.3476 13.5746 13.6289 13.8807 13.9155 14.1817C13.9512 14.2189 14.0153 14.2515 14.0651 14.2493C15.1297 14.2064 16.1805 14.3291 17.227 14.5075L17.2852 14.5093L18.146 14.6855C18.9903 14.8899 19.8324 15.1055 20.6805 15.2926C20.9546 15.3533 21.2456 15.358 21.5285 15.3558C22.0796 15.3518 22.6306 15.3245 23.182 15.307L23.965 15.3718ZM16.8621 14.8436C16.286 14.8104 15.7099 14.766 15.1331 14.7494C14.9016 14.7428 14.7708 14.8749 14.7432 15.1039C14.6938 15.5101 14.6559 15.9176 14.6293 16.3259C14.6033 16.7415 14.644 16.7922 15.0455 16.928C16.1545 17.3029 17.2989 17.4221 18.4637 17.4027C18.8892 17.3958 19.2025 17.2062 19.4156 16.8585C19.5918 16.5716 19.7417 16.268 19.8881 15.9645C20.0155 15.7004 19.9757 15.5802 19.6929 15.4873C19.2626 15.3455 18.8207 15.2385 18.3839 15.1164L16.8621 14.8436ZM23.2775 15.6756L23.2712 15.7182C23.0503 15.7182 22.8287 15.7088 22.6084 15.721C22.4147 15.7317 22.2213 15.7598 22.0298 15.7924C21.7779 15.8352 21.6174 15.9836 21.593 16.2436C21.567 16.5143 21.5451 16.7869 21.5457 17.0585C21.5467 17.5316 21.633 17.6362 22.0874 17.7457C22.7355 17.9015 23.3939 17.9635 24.0595 17.9319C24.2203 17.9244 24.3806 17.8881 24.5398 17.8577C24.7508 17.8173 24.9022 17.7053 24.9889 17.4988C25.1441 17.128 25.3193 16.7656 25.4711 16.3938C25.5975 16.084 25.5666 16.003 25.2414 15.9491C24.5893 15.8409 23.9324 15.7648 23.2775 15.6756Z" fill="black"/>
<path fill-rule="evenodd" clip-rule="evenodd" d="M17.0932 6.65985C16.5202 7.37396 15.716 7.75949 14.5976 7.85055L15.6644 7.31169C14.7002 6.3319 14.0127 5.25417 14.0409 3.84754C14.0897 2.98417 14.3538 2.19527 14.8551 1.48836C14.9033 1.42045 14.964 1.36131 15.0185 1.2981L15.0491 1.31249L15.0513 1.38853C15.0169 1.44549 14.965 1.49837 14.9509 1.55971C14.755 2.41557 14.7578 3.268 15.0379 4.10634C15.3414 5.01477 15.9141 5.72857 16.6651 6.30937C16.8112 6.42265 16.9508 6.54313 17.0932 6.65985Z" fill="black"/>
<path fill-rule="evenodd" clip-rule="evenodd" d="M25.7267 24.5422C25.7493 24.5679 25.7909 24.5932 25.7909 24.6189C25.7975 25.2967 25.8018 25.9748 25.8003 26.653C25.8 26.8201 25.7762 26.9869 25.7633 27.154C25.62 27.7441 25.5071 28.3434 25.3262 28.9217C25.0458 29.8195 24.5814 30.6278 24.0028 31.3694C23.9502 31.3491 23.8933 31.3353 23.8451 31.3069C22.9463 30.7858 22.0489 30.2635 21.1511 29.7413C21.1123 29.7221 21.0811 29.6905 21.0625 29.6515C21.1908 29.6665 21.3185 29.6831 21.4471 29.6962C22.7814 29.8336 23.8886 29.378 24.7592 28.3756C24.9522 28.1535 25.0546 27.8443 25.1697 27.5636C25.5649 26.596 25.7652 25.5906 25.7267 24.5422Z" fill="#dedede"/>
<path fill-rule="evenodd" clip-rule="evenodd" d="M22.8301 2.17015V3.62058C22.8301 3.90222 22.826 3.90097 22.5632 3.8437C21.5993 3.63466 20.6346 3.43001 19.6704 3.22128C19.6022 3.20657 19.5387 3.1709 19.4727 3.14493L19.4733 3.10612L19.5124 3.06701C19.7912 2.63579 20.1123 2.24118 20.5163 1.91918L21.6216 1.03796C21.6197 1.10305 21.6313 1.17284 21.6128 1.23323C21.527 1.50892 21.4325 1.78243 21.3233 2.111C21.8591 1.91135 22.3253 1.66602 22.8304 1.58152L22.8301 2.17015Z" fill="#dedede"/>
<path fill-rule="evenodd" clip-rule="evenodd" d="M17.0939 6.6598C16.9516 6.54308 16.812 6.4226 16.6665 6.30963C15.9158 5.72914 15.3428 5.01504 15.0392 4.1066C14.7589 3.26826 14.756 2.41583 14.9522 1.55997C14.9663 1.49832 15.0183 1.44543 15.0527 1.38879L15.3037 2.36326C15.6726 3.5452 16.3705 4.48118 17.4 5.17088C17.7852 5.42873 17.8009 5.44031 17.5956 5.86183C17.4591 6.14253 17.2632 6.39475 17.0939 6.6598Z" fill="black"/>
<path fill-rule="evenodd" clip-rule="evenodd" d="M28.9482 9.83923C28.9498 9.7998 28.9372 9.75223 28.9548 9.72188C29.1951 9.3063 29.4395 8.89324 29.683 8.47923C30.1067 8.39255 30.5373 8.33121 30.9522 8.21386C31.8741 7.95319 32.6896 7.50101 33.3414 6.78221C33.419 6.69678 33.5004 6.6151 33.5802 6.53186C33.2491 7.47065 32.7537 8.30837 32.034 9.00182C31.3477 9.66305 30.5019 9.899 29.5703 9.87959C29.3628 9.87553 29.1557 9.85331 28.9482 9.83923Z" fill="black"/>
<path fill-rule="evenodd" clip-rule="evenodd" d="M33.5799 6.5321C33.5001 6.61534 33.4184 6.69702 33.3411 6.78245C32.6893 7.50125 31.8741 7.95344 30.9519 8.21411C30.5369 8.33146 30.106 8.39279 29.6826 8.47947L30.4803 7.23651C31.6087 7.41864 32.5998 7.07222 33.5173 6.44417L33.6474 6.36218L33.5799 6.5321Z" fill="black"/>
<path fill-rule="evenodd" clip-rule="evenodd" d="M32.351 29.4105L32.3598 29.3561L32.3773 29.3611L32.357 29.4155L32.351 29.4105Z" fill="#dedede"/>
<path fill-rule="evenodd" clip-rule="evenodd" d="M15.0195 1.29833L15.0386 1.27673L15.0502 1.31303L15.0195 1.29833Z" fill="black"/>
<path fill-rule="evenodd" clip-rule="evenodd" d="M11.8231 34.8396L11.1982 34.4293L11.0812 34.3689C11.0208 33.8432 10.9717 33.3162 10.8969 32.7927C10.8277 32.3089 10.567 31.9105 10.2626 31.5431C9.78346 30.9645 9.26681 30.4157 8.96515 29.71C8.70072 29.092 8.51734 28.4533 8.47009 27.783C8.43034 27.1949 8.40468 26.606 8.39311 26.0168C8.38716 25.7542 8.42565 25.4904 8.44568 25.1988L8.90475 25.6819C9.0753 24.5063 9.64264 23.5402 10.1987 22.5664C10.0394 23.3162 9.85825 24.0619 9.72744 24.8164C9.59664 25.5718 9.47898 26.3332 9.56065 27.1374C9.32189 27.0407 9.21737 26.8379 9.05715 26.6198C9.03086 27.2231 9.23646 27.7144 9.45238 28.1917C9.66767 28.6673 9.93961 29.1173 10.2125 29.6264L9.29497 29.5441C9.33065 29.7438 9.45613 29.9284 9.61792 30.0674C9.9122 30.3205 10.2199 30.5575 10.5398 30.7774C11.3262 31.3166 11.8188 32.0435 11.9286 32.9914C11.974 33.3838 11.9245 33.7884 11.9039 34.1868C11.8926 34.4052 11.851 34.6221 11.8231 34.8396ZM7.64708 37.4916L7.75723 37.8465C7.67556 37.7683 7.58043 37.6994 7.51534 37.6093C7.38624 37.4313 7.26694 37.2464 7.15797 37.0554C7.05063 36.8661 6.96208 36.6661 6.85975 36.4599L6.74146 36.5882C6.68263 36.1323 6.54212 35.7076 6.67355 35.262C6.74647 35.7827 6.88885 36.2778 7.15828 36.7722L7.21617 36.6502L7.24872 36.5187L7.60765 37.4118L7.64833 37.4932L7.64708 37.4916Z" fill="#dedede"/>
<path fill-rule="evenodd" clip-rule="evenodd" d="M5.8394 38.1766C5.28583 37.941 4.77888 36.5315 5.03705 36.0371L5.30648 37.2985L5.43822 37.2087L5.8394 38.1766Z" fill="#dedede"/>
<path fill-rule="evenodd" clip-rule="evenodd" d="M10.2521 22.4337L10.2381 22.4375L10.2324 22.4209L10.2465 22.4171L10.2521 22.4337Z" fill="#dedede"/>
<path fill-rule="evenodd" clip-rule="evenodd" d="M15.3242 18.5759C16.7318 18.5759 18.1037 18.5593 19.4752 18.5821C20.3055 18.5959 21.1357 18.6604 21.9643 18.7242C22.2626 18.7439 22.5469 18.8575 22.7767 19.0487C22.4406 19.3044 22.1251 19.561 21.7922 19.7913C21.6342 19.9008 21.5825 20.016 21.6586 20.1825C21.7637 20.4118 21.8801 20.6359 21.9906 20.8628L22.2128 21.3281C22.1295 21.3438 22.0867 21.3578 22.0432 21.3588C21.0746 21.3841 20.1033 21.4511 19.142 21.2906C18.0749 21.1125 17.0569 20.7899 16.187 20.1127C15.7651 19.7847 15.4591 19.3726 15.3527 18.835C15.3374 18.7608 15.3355 18.6835 15.3242 18.5759Z" fill="black"/>
<path fill-rule="evenodd" clip-rule="evenodd" d="M19.6875 24.2281L19.1487 23.3556L18.4793 24.3442C18.1298 23.9521 18.0143 23.4993 17.8422 23.0342L17.2949 23.6438C17.0408 23.1256 16.8865 22.6108 16.8486 22.0022C18.2671 22.4603 19.6775 22.6177 21.1173 22.5285L21.1333 22.5899C20.9681 22.68 20.81 22.7883 20.6363 22.8556C20.3156 22.9795 20.2079 23.2517 20.0944 23.5371C20.0014 23.7693 19.8753 23.9881 19.7639 24.2127L19.6875 24.2281Z" fill="#dedede"/>
<path fill-rule="evenodd" clip-rule="evenodd" d="M20.9725 29.6329L20.9568 29.6376L20.9521 29.6179L20.9687 29.6214L20.9725 29.6329Z" fill="#dedede"/>
<path fill-rule="evenodd" clip-rule="evenodd" d="M18.602 12.8436C17.8131 12.5654 17.1193 12.6236 16.5454 13.2714C16.5004 12.9128 16.9056 12.4524 17.3356 12.3341C17.8482 12.193 18.4205 12.4086 18.602 12.8436ZM16.6631 13.8788C16.6737 13.6269 16.8512 13.4926 17.0352 13.3731C17.4579 13.0986 18.2202 13.1396 18.5228 13.6012C18.4027 13.5868 18.2997 13.5815 18.1996 13.5611C17.6845 13.4566 17.2173 13.5981 16.7673 13.834L16.6631 13.8788ZM24.2564 13.6735C24.5026 13.4547 24.8772 13.4078 25.1851 13.5768C25.514 13.7567 25.6717 13.9952 25.647 14.4014C25.3009 13.9101 24.8159 13.7257 24.2564 13.6735Z" fill="#dedede"/>
<path fill-rule="evenodd" clip-rule="evenodd" d="M25.2419 15.2344C24.7384 14.6267 24.53 14.6083 23.9404 14.4458C24.137 14.2587 24.3713 14.2208 24.6029 14.2872C25.0532 14.4164 25.1947 14.7819 25.2419 15.2344Z" fill="#dedede"/>
<path fill-rule="evenodd" clip-rule="evenodd" d="M31.8066 23.636L31.7987 23.6519L31.8078 23.6369L31.8066 23.636ZM30.7545 24.8089L30.7363 24.8245L30.7523 24.8063L30.7545 24.8089Z" fill="#dedede"/>
<path fill-rule="evenodd" clip-rule="evenodd" d="M8.43393 38.073L8.44488 38.1293L8.41797 38.0865L8.43393 38.073Z" fill="#dedede"/>
<path fill-rule="evenodd" clip-rule="evenodd" d="M18.3838 15.1165C18.8206 15.2385 19.2625 15.3455 19.6928 15.4873C19.9757 15.5802 20.0154 15.7004 19.888 15.9645C19.7419 16.2681 19.5917 16.5716 19.4155 16.8586C19.2021 17.2062 18.8892 17.3959 18.4636 17.4027C17.2985 17.4221 16.1545 17.3029 15.0454 16.928C14.644 16.7922 14.6033 16.7415 14.6292 16.3259C14.6549 15.9179 14.6946 15.5101 14.7432 15.104C14.7707 14.8749 14.9012 14.7425 15.1331 14.7494C15.7098 14.7663 16.2859 14.8104 16.862 14.8436L16.7034 15.3402C16.5598 15.697 16.5342 16.0903 16.6301 16.4627C16.7318 16.8676 17.0836 17.0826 17.4503 16.9856C17.7839 16.8974 18.1494 16.4602 18.1841 16.1075C18.3559 15.799 18.3782 15.4594 18.3838 15.1165Z" fill="#dedede"/>
<path fill-rule="evenodd" clip-rule="evenodd" d="M23.2773 15.6757C23.9323 15.7648 24.5891 15.8406 25.2406 15.9488C25.5658 16.0027 25.5968 16.0837 25.4703 16.3935C25.3186 16.7653 25.1433 17.1277 24.9881 17.4985C24.9017 17.7053 24.7503 17.8174 24.5391 17.8574C24.3801 17.8878 24.2196 17.9241 24.0587 17.9316C23.3958 17.9635 22.7318 17.9008 22.0866 17.7454C21.6322 17.6359 21.5456 17.5313 21.5449 17.0582C21.5443 16.7863 21.5665 16.514 21.5922 16.2433C21.6169 15.9833 21.7771 15.8349 22.029 15.7921C22.2206 15.7595 22.4139 15.7314 22.6076 15.7207C22.828 15.7085 23.0495 15.7179 23.2704 15.7179L23.2773 15.6757ZM24.1463 16.4927C24.1138 16.5616 24.0988 16.6101 24.0709 16.6492C23.9486 16.8235 23.8456 17.0197 23.6932 17.1627C23.3649 17.4703 22.9563 17.3786 22.7713 16.9687C22.6978 16.805 22.6596 16.6251 22.6033 16.4473C22.561 16.9174 22.6067 17.2481 22.7441 17.4794C22.8824 17.7122 23.0764 17.8023 23.3336 17.7532C23.7918 17.6659 24.182 17.077 24.1463 16.4927ZM22.863 16.4038L22.8254 16.4395C22.9027 16.5368 22.9613 16.6767 23.0617 16.7202C23.2016 16.7809 23.2911 16.6439 23.3565 16.529C23.3846 16.4782 23.4039 16.423 23.4134 16.3657C23.4454 16.1789 23.3609 15.9848 23.2391 15.952C23.1061 15.9163 22.9475 16.0518 22.8915 16.2524L22.863 16.4038Z" fill="#dedede"/>
<path fill-rule="evenodd" clip-rule="evenodd" d="M16.7036 15.3406C16.7189 15.5662 16.7121 15.7959 16.7552 16.0159C16.8072 16.2787 16.9389 16.5031 17.2259 16.5823C17.5132 16.6618 17.7469 16.5551 17.95 16.3607C18.0329 16.2816 18.1065 16.1927 18.1844 16.1082C18.1497 16.4609 17.7842 16.898 17.4506 16.9863C17.0838 17.0833 16.7321 16.8683 16.6304 16.4634C16.5343 16.0909 16.5599 15.6974 16.7036 15.3406ZM24.1467 16.4928C24.1823 17.077 23.7921 17.666 23.3343 17.753C23.0771 17.8021 22.8834 17.712 22.7447 17.4791C22.6074 17.2479 22.5617 16.9171 22.6039 16.4471C22.6599 16.6248 22.6981 16.8048 22.772 16.9684C22.9569 17.3784 23.3656 17.4704 23.6939 17.1625C23.8463 17.0194 23.9492 16.8232 24.0716 16.6489C24.0991 16.6101 24.1141 16.5616 24.1467 16.4928Z" fill="black"/>
<path fill-rule="evenodd" clip-rule="evenodd" d="M22.8632 16.4039L22.8917 16.2527C22.948 16.0521 23.1067 15.9166 23.2393 15.9523C23.3608 15.9852 23.4456 16.1792 23.4137 16.366C23.4041 16.4233 23.3848 16.4785 23.3567 16.5293C23.2916 16.6442 23.2018 16.7812 23.0619 16.7205C22.9615 16.677 22.9026 16.5368 22.8257 16.4398L22.8632 16.4039ZM16.9645 15.6566C16.9729 15.4394 17.1184 15.2582 17.2846 15.257C17.4242 15.256 17.5403 15.4247 17.5321 15.6165C17.5227 15.8306 17.3566 16.0299 17.192 16.0236C17.0443 16.018 16.9557 15.8756 16.9645 15.6566Z" fill="black"/>
</g>
<defs>
<clipPath id="clip0_542_13834">
<rect width="35.2941" height="40" fill="#dedede" transform="translate(0.352539 0.5)"/>
</clipPath>
</defs>
</svg>
