<svg width="41" height="40" viewBox="0 0 41 40" fill="none" xmlns="http://www.w3.org/2000/svg">
<path d="M1.2108 17.1779L13.0224 5.58919L16.476 8.99174C15.9856 10.693 16.7825 12.5544 18.3765 13.4551V24.5434C17.1504 25.2239 16.333 26.5249 16.333 28.006C16.333 29.0677 16.7636 30.0858 17.53 30.8366C18.2965 31.5873 19.3361 32.009 20.42 32.009C21.504 32.009 22.5436 31.5873 23.31 30.8366C24.0765 30.0858 24.5071 29.0677 24.5071 28.006C24.5071 26.5249 23.6897 25.2239 22.4636 24.5434V14.8161L26.6937 18.9993C26.5506 19.2995 26.5506 19.6397 26.5506 20C26.5506 21.0617 26.9812 22.0798 27.7477 22.8305C28.5142 23.5813 29.5538 24.003 30.6377 24.003C31.7217 24.003 32.7612 23.5813 33.5277 22.8305C34.2942 22.0798 34.7248 21.0617 34.7248 20C34.7248 18.9383 34.2942 17.9202 33.5277 17.1695C32.7612 16.4187 31.7217 15.997 30.6377 15.997C30.2699 15.997 29.9225 15.997 29.6159 16.1371L24.3641 10.9932C24.6178 10.0662 24.5194 9.08051 24.0872 8.21915C23.655 7.35779 22.9183 6.67932 22.014 6.30973C21.1353 5.98949 20.2157 5.90943 19.3983 6.1296L15.9243 2.74706L17.5386 1.18589C19.1326 -0.395296 21.7075 -0.395296 23.3014 1.18589L39.6293 17.1779C41.2437 18.7391 41.2437 21.2609 39.6293 22.8221L23.3014 38.8141C21.7075 40.3953 19.1326 40.3953 17.5386 38.8141L1.2108 22.8221C-0.403598 21.2609 -0.403598 18.7391 1.2108 17.1779Z" fill="white"/>
</svg>
