<svg width="24" height="40" viewBox="0 0 24 40" fill="none" xmlns="http://www.w3.org/2000/svg">
<g clip-path="url(#clip0_542_13939)">
<path fill-rule="evenodd" clip-rule="evenodd" d="M1.13296 8.40839C1.48914 12.1578 1.84247 15.8861 2.20393 19.698C2.79323 18.6847 3.21966 17.7129 3.86298 16.9169C4.46202 16.1753 5.21702 15.4909 6.03863 15.017C7.11122 14.398 8.51766 14.9808 8.86531 16.0786C8.95872 16.373 8.73575 16.7678 8.65777 17.1167C8.39541 16.9782 8.0571 16.9018 7.88572 16.6898C7.15752 15.7894 6.7189 15.683 5.91354 16.4612C4.41126 17.9135 3.5665 19.733 3.24403 21.7778C3.18189 22.1734 3.42923 22.6173 3.5336 23.0389C3.9442 22.8976 4.421 22.8456 4.75281 22.5986C5.8315 21.7957 6.49999 20.7036 6.86876 19.3983C6.94877 19.1157 7.38252 18.9333 7.65381 18.7046C7.78378 18.9719 8.08025 19.2866 8.01811 19.4982C7.44363 21.4638 6.82943 23.4176 6.1759 25.3583C6.11011 25.5549 5.74905 25.6528 5.52446 25.7965C5.4339 25.5382 5.24342 25.2677 5.27388 25.0245C5.34211 24.4729 5.51959 23.9348 5.64346 23.4296L2.70307 24.7832C2.86755 26.6604 3.03812 28.7662 3.24038 30.8691C3.39552 32.475 3.65829 32.8908 5.23977 33.1954C7.08523 33.5508 8.96521 33.7778 10.8411 33.9159C13.6038 34.1241 16.3818 33.8626 19.0572 33.1426C20.0611 32.873 20.4616 32.2126 20.5335 31.2269C20.5993 30.3192 20.7463 29.4172 20.8482 28.5119C21.0485 26.7286 21.243 24.9449 21.4477 23.0868C20.7707 23.5157 20.2382 23.9957 19.6156 24.1992C19.1624 24.3474 18.5905 24.1306 18.0711 24.0762C18.1706 23.5994 18.1645 23.062 18.3944 22.66C18.7688 22.0028 19.2976 21.433 19.7606 20.8263L19.5612 20.5863C19.2294 20.7824 18.8172 20.9112 18.5812 21.1894C18.1012 21.7555 17.6313 22.3615 17.31 23.0251C16.7723 24.1359 16.3625 25.3084 15.8812 26.4471C15.6721 26.941 15.4918 27.6964 14.7912 27.4081C14.0419 27.099 14.569 26.439 14.7449 25.9695C15.0247 25.2206 15.3943 24.505 15.6445 23.9543C14.9354 24.0388 14.2165 24.1407 13.4944 24.2037C13.189 24.2297 12.8259 24.0623 12.5761 24.1752C11.7456 24.5505 11.2192 24.3998 11.0466 23.4804C10.662 23.7301 10.3363 24.0684 9.95252 24.1594C9.48669 24.2703 8.85475 24.343 8.5136 24.1103C8.24027 23.9239 8.14077 23.2233 8.23418 22.8123C8.41978 21.9951 8.76662 21.2097 9.09599 20.4327C9.29987 19.9515 9.50496 19.1831 10.193 19.5177C10.8728 19.8479 10.2555 20.4051 10.0987 20.8523C9.85546 21.5435 9.60772 22.2335 9.36241 22.924L9.7523 23.1595C10.1235 22.837 10.5861 22.5743 10.846 22.1787C11.2716 21.5321 11.5287 20.7767 11.9316 20.1131C12.0985 19.8382 12.458 19.6806 12.7305 19.4698C12.7857 19.8199 12.9181 20.1797 12.8742 20.5176C12.8308 20.8592 12.5908 21.1715 12.4758 21.5094C12.3032 22.0154 12.1639 22.5328 11.9885 23.1213C12.8182 23.153 13.1736 22.8037 13.4079 22.1876C14.1495 20.241 14.8992 18.2965 15.7143 16.3799C15.8536 16.0518 16.3272 15.8666 16.6468 15.6148C16.6838 16.0104 16.86 16.4587 16.7345 16.7922C16.0664 18.5584 15.3163 20.293 14.6113 22.0455C14.4923 22.3407 14.4541 22.6685 14.379 22.9812C15.6213 22.4228 16.6582 21.8055 17.0367 20.4851C17.1293 20.1643 17.5086 19.9259 17.7559 19.6493L18.331 20.2585C18.5057 20.1115 18.6657 19.9442 18.8553 19.8219C19.4524 19.4373 20.0953 19.0982 20.7248 19.694C21.3762 20.3101 20.8832 20.9104 20.5428 21.4432C20.1724 22.0244 19.7188 22.5519 19.3013 23.1027C20.2403 22.4975 21.5224 22.2262 21.693 20.9185C22.1089 17.7242 22.4744 14.5235 22.8452 11.3236C22.9552 10.3765 23.0141 9.42331 23.0998 8.43641C15.7042 10.227 8.4673 10.238 1.13296 8.40839ZM4.30729 33.3323C4.66346 34.2733 5.20443 35.1977 5.34617 36.1797C5.64549 38.2701 5.72144 40.3921 5.93344 42.4967C5.9643 42.8033 6.1629 43.2245 6.41064 43.3593C10.0577 45.3412 13.7401 45.6848 17.4611 43.5173C18.0163 43.194 18.119 42.7672 18.1909 42.1669C18.539 39.2505 17.7641 36.157 19.6286 33.4107C14.4074 34.7058 9.31164 34.7461 4.30729 33.3323ZM16.8937 8.93189C18.6653 8.76091 20.4153 8.34503 22.1674 8.00144C22.4975 7.93687 22.7908 7.68547 23.101 7.52017C22.6921 7.16075 22.3383 6.98774 21.9688 6.94428C20.129 6.727 18.2827 6.55967 16.4441 6.33183C16.1663 6.29731 15.6705 5.95454 15.6912 5.89199C16.2277 4.27559 16.2013 2.44596 17.4189 1.08379C18.9577 -0.638206 20.5124 -2.34518 22.0553 -4.05297C20.9075 -5.28761 20.8921 -5.28923 19.852 -4.20851C19.2639 -3.59769 18.7266 -2.9292 18.0886 -2.37605C15.7277 -0.329952 14.0695 2.09344 13.7462 5.28848C13.6719 6.02155 13.2694 6.28635 12.4998 6.29772C9.95902 6.33468 7.41542 6.40453 4.88034 6.57145C3.62417 6.6539 2.38344 6.97636 1.1354 7.18999L1.12402 7.65664C1.90502 7.89747 2.67098 8.21385 3.46862 8.36696C7.91333 9.21903 12.3999 9.36523 16.8937 8.93189ZM15.4739 7.81584C14.4679 8.6281 13.6365 8.6281 12.8336 7.81584H15.4739Z" fill="#dedede"/>
</g>
<defs>
<clipPath id="clip0_542_13939">
<rect width="23" height="40" fill="#dedede" transform="translate(0.5)"/>
</clipPath>
</defs>
</svg>
