<svg width="45" height="41" viewBox="0 0 45 41" fill="none" xmlns="http://www.w3.org/2000/svg">
<path d="M43.1844 17.4733C41.0528 19.2176 38.3022 20.0631 35.5352 19.8244C32.7683 19.5857 30.2108 18.2824 28.4234 16.2001C24.6912 11.8464 25.2783 5.33649 29.7024 1.74268L30.7717 0.962309C29.0369 2.80468 28.0461 5.20255 27.9843 7.7081C27.9226 10.2136 28.7941 12.6555 30.4362 14.5777C33.8539 18.5617 39.7667 19.3421 44.1489 16.5697L43.1844 17.4733ZM39.4522 25.8726C37.8735 27.1764 36.0475 28.162 34.0789 28.7729C32.1103 29.3837 30.038 29.6078 27.9808 29.4323C25.9235 29.2567 23.922 28.685 22.0909 27.7499C20.2598 26.8148 18.6354 25.5348 17.3107 23.9832C11.7124 17.4733 12.593 7.75975 19.2397 2.25608L21.1687 0.941772C18.6779 3.70513 17.2825 7.25232 17.2363 10.9382C17.1901 14.624 18.4962 18.2037 20.917 21.0261C25.9911 26.8994 34.6297 28.1931 41.1506 24.2707L39.4522 25.8726ZM37.0829 35.8942C27.7734 43.5541 13.872 42.363 6.05119 33.2245C-1.74867 24.1065 -0.532566 10.4705 8.77694 2.85163L11.1043 1.22928C3.74478 9.03298 3.28349 21.2109 10.4753 29.6101C17.6671 37.9888 29.9959 39.6728 39.1586 33.9432L37.0829 35.8942Z" fill="#dedede"/>
</svg>
