<svg width="42" height="41" viewBox="0 0 42 41" fill="none" xmlns="http://www.w3.org/2000/svg">
<path d="M0.887695 0.85022H41.7278V40.8502H0.887695V0.85022ZM11.6196 34.2724C12.5271 36.1613 14.3195 37.7169 17.3825 37.7169C20.7859 37.7169 23.1228 35.9391 23.1228 32.0502V19.2058H19.2657V31.9613C19.2657 33.8724 18.4716 34.3613 17.2237 34.3613C15.9078 34.3613 15.3632 33.4724 14.7506 32.428L11.6196 34.2724ZM25.1875 33.8724C26.322 36.0502 28.6136 37.7169 32.1984 37.7169C35.8286 37.7169 38.5513 35.8724 38.5513 32.4724C38.5513 29.3391 36.7135 27.9391 33.4463 26.5613L32.4934 26.1613C30.8371 25.4724 30.1337 25.0058 30.1337 23.8947C30.1337 22.9836 30.8371 22.2724 31.9715 22.2724C33.0606 22.2724 33.7866 22.7391 34.4446 23.8947L37.4169 21.9613C36.169 19.828 34.3992 19.0058 31.9715 19.0058C28.5455 19.0058 26.3447 21.1391 26.3447 23.9613C26.3447 27.028 28.1825 28.4724 30.9505 29.628L31.9035 30.028C33.6732 30.7836 34.7169 31.2502 34.7169 32.5391C34.7169 33.6058 33.6959 34.3836 32.1077 34.3836C30.2245 34.3836 29.1354 33.428 28.3186 32.0947L25.1875 33.8724Z" fill="#dedede"/>
</svg>
