<svg width="56" height="41" viewBox="0 0 56 41" fill="none" xmlns="http://www.w3.org/2000/svg">
<path d="M54.6241 36.5879L38.9142 9.17451C38.642 8.96118 37.8252 7.44118 36.1916 7.44118C35.5109 7.44118 34.558 7.70785 33.5778 9.17451L31.563 12.3212L26.0632 2.69452C25.9271 2.42785 24.9742 0.961182 23.3406 0.961182C22.6599 0.961182 21.5708 1.22785 20.754 2.69452L1.20525 36.4545C1.06912 36.7212 0.252315 38.2945 1.06912 39.6278C1.34138 40.2945 2.15818 40.9612 3.95515 40.9612H52.0375C52.3098 40.9612 54.0795 40.9612 54.8963 39.6278C55.1686 38.9879 55.4408 37.9212 54.6241 36.5879ZM17.3235 36.4545L16.9151 37.9212H4.09128L23.4767 4.53452L29.7388 15.5478L17.3235 36.4545ZM20.3456 37.9212L31.5358 18.7212L42.9166 37.9212H20.3456ZM46.2927 37.9212L45.7481 36.4545L33.3872 15.5212L36.1916 10.9078L51.7652 37.9212H46.2927Z" fill="#dedede"/>
</svg>
