<svg width="42" height="40" viewBox="0 0 42 40" fill="none" xmlns="http://www.w3.org/2000/svg">
<path fill-rule="evenodd" clip-rule="evenodd" d="M16.6125 12.9193C15.4167 12.6251 14.2193 12.7195 12.9556 12.9123C12.9556 15.0769 12.9511 17.1832 12.9676 19.2899C12.9683 19.3977 13.1336 19.5854 13.2408 19.5997C14.6187 19.782 15.9893 19.7966 17.2779 19.1814C18.6111 18.5452 19.2902 17.215 19.1141 15.6532C18.9543 14.2311 18.0947 13.2841 16.6125 12.9193ZM41.5394 20.0275V0.726822C41.5394 0.0601179 41.5469 0 40.886 0H1.42423C0.781523 0 0.619141 0.060436 0.619141 0.695331V39.3454C0.619141 39.9873 0.700981 39.9882 1.33654 39.9882C14.5074 39.9885 27.7175 39.9854 40.8883 40C41.3991 40.0006 41.5362 39.8674 41.5349 39.3769C41.5173 32.9271 41.5394 26.4767 41.5394 20.0275ZM18.5955 21.8851C16.7908 22.5156 14.9088 22.5509 12.9602 22.403V29.5818H9.38777V29.1358C9.38777 23.1257 9.35952 17.1161 9.34231 11.1062C9.34036 10.6071 9.42122 10.366 9.99541 10.3088C12.7013 10.0378 15.392 9.73305 18.0827 10.3511C20.975 11.0149 22.6427 12.8878 22.7694 15.4754C22.9262 18.6798 21.4885 20.8746 18.5955 21.8851ZM32.9858 25.942C32.8481 27.7776 31.7913 28.9828 30.058 29.5656C27.7386 30.3455 25.4318 30.1645 23.1649 29.2822C22.7937 29.1374 22.7219 28.9542 22.8444 28.5837C23.0675 27.9074 23.2308 27.2121 23.403 26.5842C24.3613 26.8596 25.2726 27.2035 26.2167 27.366C26.8835 27.4809 27.6041 27.4134 28.2819 27.3094C28.8895 27.2159 29.3267 26.8119 29.4264 26.1732C29.5277 25.524 29.328 24.9616 28.7427 24.6162C28.2777 24.342 27.7652 24.1457 27.2738 23.9158C26.4837 23.5458 25.6416 23.2557 24.9128 22.7929C22.0448 20.9713 22.9785 17.5818 24.8923 16.3053C25.9163 15.6227 27.0494 15.3199 28.2624 15.2782C29.6891 15.2292 31.0629 15.4703 32.4123 16.1125L31.6994 18.5901C31.1343 18.3942 30.6082 18.1397 30.0528 18.0385C29.3939 17.9183 28.7028 17.8512 28.0377 17.9043C27.1459 17.9759 26.6237 18.5786 26.6237 19.3261C26.6237 19.7689 26.7951 20.1436 27.1722 20.3583C27.7132 20.6665 28.2874 20.9207 28.8564 21.1787C29.4722 21.4576 30.1223 21.672 30.715 21.9904C32.2966 22.8397 33.1199 24.1534 32.9858 25.942Z" fill="#dedede"/>
</svg>
