<svg width="48" height="41" viewBox="0 0 48 41" fill="none" xmlns="http://www.w3.org/2000/svg">
<g clip-path="url(#clip0_542_13896)">
<path d="M39.989 3.79047L39.9899 3.79088C42.0728 4.84429 43.6086 6.29057 44.6051 8.12943C45.6052 9.97455 46.1074 12.0766 46.1074 14.4396C46.1074 16.8029 45.6052 18.8913 44.6056 20.7095C43.6093 22.5221 42.0805 23.9488 40.0114 24.9892C39.1135 25.435 38.6953 26.5449 39.2761 27.3834L45.9115 36.9631C46.632 38.0033 45.8565 39.3959 44.5566 39.3959H34.495C33.9149 39.3959 33.3785 39.099 33.0872 38.6167L12.5087 4.53965C11.8785 3.49619 12.6615 2.18848 13.9164 2.18848H31.9668C35.24 2.18848 37.9106 2.72634 39.989 3.79047Z" fill="#dedede" stroke="#2C2C2C" stroke-width="1.93333"/>
<path d="M16.514 38.7544L2.71262 15.7002C2.08794 14.6567 2.87125 13.3541 4.12342 13.3541H31.7261C32.9782 13.3541 33.7616 14.6567 33.1369 15.7002L19.3355 38.7544C18.7095 39.8002 17.14 39.8002 16.514 38.7544Z" fill="#dedede" stroke="#2C2C2C" stroke-width="1.93333" stroke-linejoin="round"/>
</g>
<defs>
<clipPath id="clip0_542_13896">
<rect width="46.4562" height="40" fill="#dedede" transform="translate(0.771484 0.5)"/>
</clipPath>
</defs>
</svg>
