<svg width="42" height="41" viewBox="0 0 42 41" fill="none" xmlns="http://www.w3.org/2000/svg">
<g clip-path="url(#clip0_542_13830)">
<path d="M20.7423 0.5C23.4239 0.5 26.0792 1.01732 28.5567 2.02241C31.0342 3.0275 33.2853 4.50069 35.1814 6.35786C37.0776 8.21504 38.5817 10.4198 39.6079 12.8463C40.6342 15.2728 41.1623 17.8736 41.1623 20.5C41.1623 25.8043 39.0109 30.8914 35.1814 34.6421C31.3519 38.3929 26.158 40.5 20.7423 40.5C18.0607 40.5 15.4054 39.9827 12.9279 38.9776C10.4504 37.9725 8.19933 36.4993 6.30315 34.6421C2.47366 30.8914 0.322266 25.8043 0.322266 20.5C0.322266 15.1957 2.47366 10.1086 6.30315 6.35786C10.1327 2.60714 15.3266 0.5 20.7423 0.5ZM16.6583 27.16C16.985 28.24 16.9442 29.24 16.6583 30.16C16.6583 30.26 16.5766 30.36 16.5358 30.5C16.4949 30.5 16.4541 30.64 16.3928 30.74C16.1682 31.22 15.8415 31.68 15.4535 32.08C14.2691 33.36 12.5743 33.84 11.9004 33.44C11.1245 33 11.5533 31.2 12.901 29.78C14.3712 28.26 16.4949 27.26 16.4949 27.26L16.6583 27.16ZM33.5457 9.06C32.6268 5.5 26.6028 4.34 20.9261 6.32C17.5364 7.5 13.8607 9.34 11.2266 11.76C8.1023 14.64 7.5918 17.14 7.796 18.18C8.49028 21.86 13.677 24.28 15.8006 26.06V26.08C15.188 26.38 10.614 28.64 9.51128 30.96C8.4086 33.4 9.71548 35.16 10.5323 35.4C13.2686 36.12 16.0253 34.82 17.4955 32.64C18.9249 30.56 18.8228 27.86 18.1898 26.5C19.0474 26.3 20.048 26.2 21.3141 26.34C24.908 26.76 25.6023 28.94 25.4593 29.86C25.3368 30.78 24.5813 31.28 24.3362 31.44C24.0912 31.58 24.0095 31.64 24.0299 31.76C24.0503 31.92 24.1729 31.92 24.3771 31.88C24.6834 31.82 26.2761 31.14 26.3374 29.44C26.4191 27.28 24.3158 24.88 20.5994 24.94C19.0679 24.98 18.1081 25.12 17.4138 25.38L17.2505 25.2C14.943 22.8 10.6956 21.1 10.8794 17.86C10.9407 16.68 11.3491 13.6 19.0474 9.84C25.3368 6.76 30.3806 7.6 31.2586 9.5C32.5042 12.16 28.5632 17.14 22.0288 17.86C19.5375 18.14 18.2102 17.18 17.8835 16.84C17.5364 16.5 17.4955 16.44 17.373 16.5C17.1484 16.64 17.2913 16.96 17.373 17.16C17.5568 17.66 18.3736 18.5 19.7213 18.98C20.9261 19.36 23.8666 19.58 27.3992 18.24C31.3607 16.74 34.4646 12.56 33.5457 9.06Z" fill="white"/>
</g>
<defs>
<clipPath id="clip0_542_13830">
<rect width="42" height="40" fill="white" transform="translate(0 0.5)"/>
</clipPath>
</defs>
</svg>
