<svg width="50" height="40" viewBox="0 0 50 40" fill="none" xmlns="http://www.w3.org/2000/svg">
<g clip-path="url(#clip0_0_1)">
<mask id="mask0_0_1" style="mask-type:luminance" maskUnits="userSpaceOnUse" x="0" y="5" width="50" height="31">
<path d="M0 5H50V35.4364H0V5Z" fill="white"/>
</mask>
<g mask="url(#mask0_0_1)">
<path fill-rule="evenodd" clip-rule="evenodd" d="M25 5C18.3333 5 14.1667 8.38182 12.5 15.1455C15 11.7636 17.9167 10.4955 21.25 11.3409C23.1519 11.8228 24.5111 13.2235 26.0157 14.7725C28.4667 17.2967 31.3037 20.2182 37.5 20.2182C44.1667 20.2182 48.3333 16.8364 50 10.0727C47.5 13.4545 44.5833 14.7227 41.25 13.8773C39.3481 13.3954 37.9889 11.9947 36.4843 10.4457C34.0333 7.92151 31.1963 5 25 5ZM12.5 20.2182C5.83333 20.2182 1.66667 23.6 0 30.3636C2.5 26.9818 5.41667 25.7136 8.75 26.5591C10.6519 27.0419 12.0111 28.4416 13.5157 29.9907C15.9667 32.5148 18.8037 35.4364 25 35.4364C31.6667 35.4364 35.8333 32.0545 37.5 25.2909C35 28.6727 32.0833 29.9409 28.75 29.0955C26.8481 28.6135 25.4889 27.2129 23.9843 25.6638C21.5333 23.1397 18.6963 20.2182 12.5 20.2182Z" fill="#DEDEDE"/>
</g>
</g>
<defs>
<clipPath id="clip0_0_1">
<rect width="50" height="31" fill="white" transform="translate(0 5)"/>
</clipPath>
</defs>
</svg>
