<svg width="42" height="41" viewBox="0 0 42 41" fill="none" xmlns="http://www.w3.org/2000/svg">
<path d="M0.936523 0.922363H41.7766V40.9224H0.936523V0.922363ZM25.2364 33.9446C26.3708 36.1224 28.6624 37.789 32.2472 37.789C35.8775 37.789 38.6001 35.9446 38.6001 32.5446C38.6001 29.4113 36.7623 28.0113 33.4951 26.6335L32.5422 26.2335C30.8859 25.5446 30.1826 25.0779 30.1826 23.9668C30.1826 23.0557 30.8859 22.3446 32.0204 22.3446C33.1094 22.3446 33.8355 22.8113 34.4935 23.9668L37.4657 22.0335C36.2178 19.9001 34.4481 19.0779 32.0204 19.0779C28.5943 19.0779 26.3935 21.2113 26.3935 24.0335C26.3935 27.1001 28.2313 28.5446 30.9994 29.7001L31.9523 30.1001C33.722 30.8557 34.7657 31.3224 34.7657 32.6113C34.7657 33.6779 33.7447 34.4557 32.1565 34.4557C30.2733 34.4557 29.1842 33.5001 28.3674 32.1668L25.2364 33.9446ZM23.6255 19.2557H12.281V22.589H15.6843V38.7001H19.6549V22.589H23.6255V19.2557Z" fill="#dedede"/>
</svg>
