<svg width="38" height="40" viewBox="0 0 38 40" fill="none" xmlns="http://www.w3.org/2000/svg">
<mask id="mask0_542_13943" style="mask-type:alpha" maskUnits="userSpaceOnUse" x="0" y="0" width="38" height="40">
<path fill-rule="evenodd" clip-rule="evenodd" d="M26.6232 39.829C26.9197 39.9538 27.2369 40.0113 27.5549 39.9982C27.873 39.985 28.1851 39.9013 28.4719 39.7524L36.1443 35.769C36.5394 35.5637 36.8728 35.2423 37.1061 34.8417C37.3394 34.4411 37.4632 33.9776 37.4632 33.5045V6.49517C37.4632 6.02198 37.3395 5.55838 37.1062 5.15771C36.8729 4.75704 36.5395 4.43558 36.1443 4.23034L28.4719 0.247564C28.0384 0.0224966 27.5507 -0.0516063 27.0764 0.0355113C26.6021 0.122629 26.1647 0.366659 25.8246 0.733828L11.1366 15.1917L4.73914 9.95178C4.45055 9.71536 4.09435 9.59541 3.73235 9.61274C3.37036 9.63007 3.02541 9.78358 2.75735 10.0466L0.705408 12.0605C0.545499 12.2174 0.417708 12.4086 0.330209 12.6219C0.24271 12.8351 0.19743 13.0658 0.197266 13.299C0.197102 13.5322 0.242056 13.7629 0.329254 13.9763C0.416452 14.1897 0.543974 14.3811 0.703661 14.5383L6.2519 19.9997L0.703952 25.4613C0.544352 25.6185 0.416907 25.8099 0.329763 26.0233C0.242619 26.2367 0.197694 26.4673 0.197858 26.7005C0.198022 26.9337 0.243273 27.1642 0.330718 27.3774C0.418162 27.5907 0.545877 27.7819 0.705699 27.9388L2.75765 29.9527C3.02564 30.2158 3.37058 30.3694 3.73259 30.3868C4.0946 30.4042 4.45083 30.2843 4.73943 30.0478L11.1369 24.8083L25.8249 39.2658C26.052 39.5113 26.3237 39.7031 26.6232 39.829ZM28.1522 10.8722L17.0077 19.9997L28.1525 29.1275L28.1522 10.8722Z" fill="#dedede"/>
</mask>
<g mask="url(#mask0_542_13943)">
<path d="M36.1466 4.23715L28.4681 0.247776C28.0344 0.022559 27.5466 -0.0516243 27.0721 0.0354941C26.5975 0.122612 26.1599 0.366724 25.8196 0.734039L0.683275 25.4615C0.523556 25.6187 0.396003 25.81 0.308782 26.0234C0.221561 26.2368 0.176594 26.4675 0.176758 26.7007C0.176923 26.9339 0.222215 27.1645 0.309737 27.3778C0.397259 27.591 0.525081 27.7822 0.685022 27.939L2.73813 29.9529C3.00637 30.216 3.35149 30.3696 3.71367 30.387C4.07585 30.4044 4.43225 30.2845 4.72108 30.0481L34.9911 5.27155C36.0066 4.44038 37.4652 5.22192 37.4652 6.59716V6.50103C37.4652 6.02799 37.3414 5.56456 37.1082 5.16402C36.8749 4.76349 36.5416 4.44242 36.1466 4.23715Z" fill="#dedede"/>
<g filter="url(#filter0_d_542_13943)">
<path d="M36.1456 35.7627L28.4671 39.7514C28.0335 39.9767 27.5457 40.051 27.0712 39.964C26.5967 39.877 26.159 39.633 25.8187 39.2658L0.682299 14.538C0.522579 14.3808 0.395027 14.1894 0.307806 13.9761C0.220585 13.7627 0.175617 13.532 0.175782 13.2988C0.175946 13.0656 0.221239 12.835 0.308761 12.6217C0.396282 12.4085 0.524105 12.2173 0.684046 12.0605L2.73716 10.0466C3.00539 9.78346 3.35051 9.62988 3.71269 9.6125C4.07487 9.59511 4.43128 9.71502 4.72011 9.95144L34.9901 34.7276C36.0056 35.5591 37.4642 34.7776 37.4642 33.4023V33.4985C37.4642 33.9715 37.3404 34.4349 37.1072 34.8355C36.8739 35.236 36.5406 35.5574 36.1456 35.7627Z" fill="#dedede"/>
</g>
<g filter="url(#filter1_d_542_13943)">
<path d="M28.4662 39.7523C28.0324 39.9774 27.5445 40.0515 27.0699 39.9643C26.5954 39.8771 26.1577 39.633 25.8174 39.2658C26.6768 40.1931 28.1465 39.5362 28.1465 38.2248V1.77417C28.1465 0.462706 26.6768 -0.194126 25.8174 0.733481C26.1577 0.366208 26.5954 0.122108 27.0699 0.0349388C27.5445 -0.0522303 28.0324 0.0218391 28.4662 0.246903L36.1432 4.23062C36.5385 4.43573 36.8721 4.75713 37.1056 5.15781C37.3391 5.55849 37.463 6.02216 37.4629 6.49545V33.5044C37.463 33.9777 37.3391 34.4414 37.1056 34.8421C36.8721 35.2427 36.5385 35.5641 36.1432 35.7693L28.4662 39.7523Z" fill="#dedede"/>
</g>
<path style="mix-blend-mode:overlay" opacity="0.25" fill-rule="evenodd" clip-rule="evenodd" d="M26.6009 39.8294C26.8974 39.9541 27.2145 40.0116 27.5325 39.9985C27.8505 39.9853 28.1626 39.9016 28.4493 39.7527L36.1217 35.7693C36.5169 35.5641 36.8503 35.2426 37.0836 34.842C37.3169 34.4413 37.4406 33.9777 37.4406 33.5045V6.49554C37.4406 6.02235 37.3169 5.55874 37.0836 5.15807C36.8503 4.7574 36.5169 4.43595 36.1217 4.2307L28.4493 0.24793C28.0158 0.0228628 27.5281 -0.0512401 27.0538 0.0358775C26.5795 0.122995 26.1421 0.367025 25.802 0.734194L11.114 15.192L4.71654 9.95247C4.42794 9.71605 4.07175 9.59609 3.70975 9.61342C3.34776 9.63075 3.00281 9.78427 2.73475 10.0473L0.682805 12.0612C0.522937 12.2181 0.395181 12.4093 0.307708 12.6226C0.220235 12.8359 0.17497 13.0665 0.174805 13.2997C0.174641 13.5329 0.219581 13.7635 0.306754 13.9769C0.393926 14.1903 0.521411 14.3818 0.681059 14.539L6.22929 20L0.68135 25.4614C0.521663 25.6186 0.394141 25.81 0.306943 26.0234C0.219745 26.2368 0.174791 26.4675 0.174955 26.7007C0.17512 26.9339 0.220399 27.1645 0.307898 27.3778C0.395397 27.5911 0.523188 27.7823 0.683097 27.9392L2.73504 29.953C3.00306 30.2161 3.34799 30.3697 3.70999 30.3871C4.07199 30.4045 4.4282 30.2846 4.71683 30.0482L11.1146 24.8083L25.8026 39.2662C26.0296 39.5116 26.3014 39.7034 26.6009 39.8294ZM28.1299 10.8722L16.9851 20L28.1299 29.1275V10.8722Z" fill="#dedede"/>
</g>
<defs>
<filter id="filter0_d_542_13943" x="-8.15756" y="1.2775" width="53.9548" height="47.0552" filterUnits="userSpaceOnUse" color-interpolation-filters="sRGB">
<feFlood flood-opacity="0" result="BackgroundImageFix"/>
<feColorMatrix in="SourceAlpha" type="matrix" values="0 0 0 0 0 0 0 0 0 0 0 0 0 0 0 0 0 0 127 0" result="hardAlpha"/>
<feOffset/>
<feGaussianBlur stdDeviation="4.16667"/>
<feColorMatrix type="matrix" values="0 0 0 0 0 0 0 0 0 0 0 0 0 0 0 0 0 0 0.25 0"/>
<feBlend mode="overlay" in2="BackgroundImageFix" result="effect1_dropShadow_542_13943"/>
<feBlend mode="normal" in="SourceGraphic" in2="effect1_dropShadow_542_13943" result="shape"/>
</filter>
<filter id="filter1_d_542_13943" x="17.484" y="-8.33395" width="28.3122" height="56.6672" filterUnits="userSpaceOnUse" color-interpolation-filters="sRGB">
<feFlood flood-opacity="0" result="BackgroundImageFix"/>
<feColorMatrix in="SourceAlpha" type="matrix" values="0 0 0 0 0 0 0 0 0 0 0 0 0 0 0 0 0 0 127 0" result="hardAlpha"/>
<feOffset/>
<feGaussianBlur stdDeviation="4.16667"/>
<feColorMatrix type="matrix" values="0 0 0 0 0 0 0 0 0 0 0 0 0 0 0 0 0 0 0.25 0"/>
<feBlend mode="overlay" in2="BackgroundImageFix" result="effect1_dropShadow_542_13943"/>
<feBlend mode="normal" in="SourceGraphic" in2="effect1_dropShadow_542_13943" result="shape"/>
</filter>
</defs>
</svg>
