<svg width="60" height="40" viewBox="0 0 60 40" fill="none" xmlns="http://www.w3.org/2000/svg">
<g clip-path="url(#clip0_4_3)">
<path d="M0 5L9.44 35.9534L15.446 16.8765L21.24 35.9534L29.9333 8.57226H37.3175L30.68 18.651V20.4768H32.2241C38.2993 20.4768 38.94 24.2213 38.94 26.0703C38.94 31.4869 35.377 32.3811 34.2937 32.3811C33.2659 32.3811 32.3716 31.8176 31.6157 31.147C30.8551 30.4763 30.2421 29.5588 29.7766 28.3944L26.6099 29.6845C27.2553 31.608 28.2462 33.1357 29.5876 34.2628C30.9243 35.3899 32.4915 35.9534 34.2937 35.9534C36.6907 35.9534 38.6404 35.0034 40.1476 33.1077C41.6549 31.2075 42.4062 28.8648 42.4062 26.075C42.4062 23.3038 41.1525 18.2458 35.4 17.2119L42.48 7.03997V5H26.8404L21.24 23.9046L15.6396 5H11.588L13.4409 11.2922L9.65203 23.9046L4.05625 5H0ZM57.82 5L55.8287 9.04732C55.8287 9.04732 54.847 7.25886 53.8743 6.44381C52.9525 5.66601 51.7541 4.94877 50.2376 5.10246C48.7718 5.2515 47.1216 6.51833 46.0062 8.63281C44.7478 11.0361 44.3145 13.4719 44.3053 16.1592C44.2961 19.9224 45.7066 22.4934 45.7066 22.4934C45.7066 22.4934 45.3839 21.2965 45.4346 19.2751C45.4715 18.013 45.4807 16.6436 46.4441 13.8072C47.2553 11.4366 49.1083 9.51308 50.7446 9.18239C52.0168 8.92157 52.828 9.11253 54.0772 9.97415C55.5614 11.0035 56.64 12.8618 56.64 12.8618L59 8.48377L57.82 5ZM42.8718 26.8527C42.8718 26.8527 43.448 28.6785 43.8075 29.4563C44.0103 29.9034 44.6464 31.268 45.5453 32.4556C46.3841 33.5641 48.0112 35.4737 50.4865 35.9022C52.9663 36.3353 54.6672 35.2409 55.0912 34.9753C55.5107 34.7099 56.4003 33.9787 56.958 33.3872C57.548 32.7678 58.1012 31.9806 58.41 31.5102C58.6312 31.1656 59 30.467 59 30.467L58.41 27.4303C58.41 27.4303 57.3821 29.2374 56.7414 29.936C56.1007 30.6346 54.953 31.8595 53.5425 32.4743C52.1274 33.0844 51.3807 33.2008 49.9841 33.0705C48.5874 32.9354 47.2876 32.139 46.8312 31.8083C46.3795 31.4776 45.218 30.4995 44.5588 29.5867C43.8997 28.6739 42.8718 26.8527 42.8718 26.8527Z" fill="#DEDEDE"/>
</g>
<defs>
<clipPath id="clip0_4_3">
<rect width="59" height="31" fill="white" transform="translate(0 5)"/>
</clipPath>
</defs>
</svg>
