<svg width="25" height="31" viewBox="0 0 25 31" fill="none" xmlns="http://www.w3.org/2000/svg">
<g clip-path="url(#clip0_480_6595)">
<path d="M15.4168 0.916748L24.1668 9.66675V27.1667C24.1668 27.9403 23.8595 28.6822 23.3126 29.2291C22.7656 29.7761 22.0237 30.0834 21.2502 30.0834H3.75016C2.97661 30.0834 2.23475 29.7761 1.68777 29.2291C1.14079 28.6822 0.833496 27.9403 0.833496 27.1667V3.83341C0.833496 3.05987 1.14079 2.318 1.68777 1.77102C2.23475 1.22404 2.97661 0.916748 3.75016 0.916748H15.4168ZM21.2502 27.1667V11.1251H13.9585V3.83341H3.75016V27.1667H21.2502ZM12.5002 15.5001L18.3335 21.3334H14.6877V25.7084H10.3127V21.3334H6.66683L12.5002 15.5001Z" fill="white"/>
</g>
<defs>
<clipPath id="clip0_480_6595">
<rect width="25" height="31" fill="white"/>
</clipPath>
</defs>
</svg>
