<svg xmlns="http://www.w3.org/2000/svg" xmlns:xlink="http://www.w3.org/1999/xlink" version="1.1" width="256" height="256" viewBox="0 0 256 256" xml:space="preserve">
<g style="stroke: none; stroke-width: 0; stroke-dasharray: none; stroke-linecap: butt; stroke-linejoin: miter; stroke-miterlimit: 10; fill: none; fill-rule: nonzero; opacity: 1;" transform="translate(1.4065934065934016 1.4065934065934016) scale(2.81 2.81)">
	<path d="M 76.824 13.22 C 61.507 -2.097 37.8 -4.033 20.36 7.409 l 0.842 -3.456 c 0.392 -1.61 -0.596 -3.232 -2.205 -3.624 c -1.61 -0.392 -3.232 0.595 -3.624 2.205 l -2.945 12.098 c -0.005 0.02 -0.003 0.041 -0.008 0.061 c -0.037 0.168 -0.056 0.338 -0.064 0.509 c -0.002 0.041 -0.011 0.081 -0.012 0.122 c -0.001 0.21 0.021 0.419 0.064 0.625 c 0.011 0.055 0.033 0.106 0.047 0.159 c 0.04 0.15 0.086 0.298 0.149 0.442 c 0.03 0.068 0.069 0.132 0.104 0.198 c 0.065 0.121 0.135 0.239 0.217 0.352 c 0.022 0.03 0.035 0.064 0.058 0.094 c 0.032 0.041 0.074 0.07 0.108 0.109 c 0.045 0.052 0.08 0.109 0.13 0.159 c 0.044 0.044 0.096 0.075 0.142 0.116 c 0.067 0.059 0.134 0.115 0.206 0.168 c 0.107 0.079 0.218 0.148 0.332 0.21 c 0.07 0.039 0.138 0.078 0.211 0.111 c 0.132 0.059 0.267 0.104 0.405 0.143 c 0.066 0.019 0.128 0.044 0.195 0.058 c 0.205 0.044 0.414 0.071 0.623 0.071 c 0.003 0 0.005 0.001 0.007 0.001 h 12.512 c 1.657 0 3 -1.343 3 -3 s -1.343 -3 -3 -3 h -4.066 c 15.101 -9.816 35.56 -8.113 48.795 5.121 c 10.716 10.717 14.254 26.834 9.012 41.061 c -0.572 1.555 0.224 3.279 1.778 3.852 c 0.342 0.126 0.692 0.186 1.037 0.186 c 1.221 0 2.368 -0.751 2.815 -1.964 C 93.272 44.182 89.19 25.585 76.824 13.22 z" style="stroke: none; stroke-width: 1; stroke-dasharray: none; stroke-linecap: butt; stroke-linejoin: miter; stroke-miterlimit: 10; fill: #ffffff; fill-rule: nonzero; opacity: 1;" transform=" matrix(1 0 0 1 0 0) " stroke-linecap="round"/>
	<path d="M 77.593 74.05 c -0.011 -0.054 -0.032 -0.104 -0.047 -0.157 c -0.04 -0.151 -0.087 -0.3 -0.151 -0.445 c -0.03 -0.068 -0.068 -0.13 -0.103 -0.196 c -0.065 -0.122 -0.136 -0.241 -0.219 -0.355 c -0.022 -0.03 -0.034 -0.064 -0.057 -0.093 c -0.032 -0.041 -0.074 -0.07 -0.107 -0.109 c -0.045 -0.052 -0.08 -0.109 -0.13 -0.159 c -0.044 -0.044 -0.095 -0.075 -0.141 -0.115 c -0.067 -0.06 -0.135 -0.116 -0.207 -0.169 c -0.107 -0.079 -0.217 -0.147 -0.331 -0.21 c -0.07 -0.039 -0.139 -0.079 -0.212 -0.112 c -0.132 -0.06 -0.268 -0.104 -0.406 -0.144 c -0.065 -0.019 -0.127 -0.043 -0.193 -0.057 c -0.208 -0.045 -0.419 -0.072 -0.631 -0.072 H 62.147 c -1.657 0 -3 1.343 -3 3 s 1.343 3 3 3 h 4.077 c -6.267 4.093 -13.586 6.295 -21.247 6.295 c -10.411 0 -20.198 -4.054 -27.56 -11.415 C 6.316 61.436 2.956 44.86 8.856 30.31 c 0.623 -1.536 -0.118 -3.285 -1.653 -3.907 c -1.536 -0.621 -3.284 0.118 -3.907 1.653 c -6.808 16.789 -2.93 35.914 9.88 48.724 c 8.495 8.495 19.789 13.173 31.802 13.173 c 8.898 0 17.398 -2.573 24.661 -7.355 l -0.84 3.45 c -0.392 1.609 0.596 3.232 2.206 3.624 c 0.238 0.058 0.477 0.086 0.711 0.086 c 1.351 0 2.579 -0.92 2.913 -2.292 l 2.944 -12.098 c 0.005 -0.02 0.003 -0.041 0.008 -0.061 c 0.037 -0.167 0.056 -0.336 0.064 -0.506 c 0.002 -0.042 0.012 -0.083 0.012 -0.125 C 77.658 74.466 77.635 74.256 77.593 74.05 z" style="stroke: none; stroke-width: 1; stroke-dasharray: none; stroke-linecap: butt; stroke-linejoin: miter; stroke-miterlimit: 10; fill: #ffffff; fill-rule: nonzero; opacity: 1;" transform=" matrix(1 0 0 1 0 0) " stroke-linecap="round"/>
	<path d="M 34.356 71.131 c -0.105 1.653 1.15 3.079 2.803 3.184 c 0.065 0.004 0.129 0.006 0.194 0.006 c 1.57 0 2.889 -1.221 2.991 -2.809 c 0.157 -2.473 0.415 -4.75 0.778 -6.892 c 9.454 -0.537 16.475 -4.512 20.501 -11.703 c 0.024 -0.043 0.047 -0.088 0.068 -0.133 c 6.056 -13.016 0.547 -24.049 -6.149 -35.139 c -0.428 -0.708 -1.243 -1.083 -2.064 -0.935 c -0.815 0.146 -1.456 0.779 -1.612 1.593 c -0.795 4.158 -4.632 6.123 -9.49 8.61 c -4.266 2.184 -9.101 4.66 -12.576 9.295 c -5.966 8.347 -5.323 17.693 1.675 25.932 c 2.13 -10.887 7.086 -18.646 16.84 -27.191 c 1.151 -1.009 2.851 -0.966 3.966 0.031 C 40.066 45.691 35.373 55.156 34.356 71.131 z" style="stroke: none; stroke-width: 1; stroke-dasharray: none; stroke-linecap: butt; stroke-linejoin: miter; stroke-miterlimit: 10; fill:#ffffff; fill-rule: nonzero; opacity: 1;" transform=" matrix(1 0 0 1 0 0) " stroke-linecap="round"/>
</g>
</svg>