<svg width="37" height="34" viewBox="0 0 37 34" fill="none" xmlns="http://www.w3.org/2000/svg">
<path d="M8.08714 5L10.5714 7.46474L4.96857 13.0235L10.5714 18.5823L8.08714 21.0645L0 13.0235L8.08714 5ZM18.3414 5L26.4286 13.0235L18.3414 21.0645L15.8571 18.5823L21.46 13.0235L15.8571 7.46474L18.3414 5ZM37 9.52743V30.5039C37 32.4442 35.4319 34 33.4762 34H5.28571C4.35114 34 3.45485 33.6317 2.794 32.976C2.13316 32.3204 1.7619 31.4311 1.7619 30.5039V23.5118H5.28571V30.5039H33.4762V9.52743H28.2433V6.03134H33.4762C35.4319 6.03134 37 7.5871 37 9.52743Z" fill="white"/>
<path d="M32 24.7143H27.2857V29H25.7143V24.7143H21V23.2857H25.7143V19H27.2857V23.2857H32V24.7143Z" fill="white"/>
</svg>
