<svg width="48" height="40" viewBox="0 0 48 40" fill="none" xmlns="http://www.w3.org/2000/svg">
<path d="M38.3902 18.0142L36.3996 19.997L17.3229 39.2531C16.8637 39.7222 16.1812 39.8214 15.54 39.1744L11.8288 35.4741C11.3712 34.9664 11.3494 34.269 11.877 33.7322L27.441 18.0048L38.3902 18.0142Z" fill="white"/>
<path d="M38.39 18.0142L46.8856 26.63C47.3105 27.0598 47.3432 27.9516 46.8164 28.4868L43.1137 32.2162C42.6709 32.6617 41.9262 32.6342 41.446 32.1517L27.4424 18.0048L38.39 18.0142Z" fill="white"/>
<path d="M10.0303 21.9963L11.9649 20.056L30.6657 1.13758C31.1241 0.674752 31.9069 0.607059 32.4478 1.21629L36.1652 4.91418C36.6407 5.39983 36.6423 6.11532 36.1139 6.64899L20.9242 22.0238L10.0303 21.9963Z" fill="white"/>
<path d="M10.0175 22.0183L1.51256 13.4127C1.08688 12.983 1.05654 12.0904 1.58182 11.5591L5.27825 7.82183C5.71949 7.37002 6.46656 7.40151 6.94515 7.88322L20.9239 22.0246L10.0175 22.0183Z" fill="white"/>
</svg>
