<svg width="50" height="26" viewBox="0 0 50 26" fill="none" xmlns="http://www.w3.org/2000/svg">
<path d="M0 0L8 25.9609L13.0898 9.96094L18 25.9609L25.3672 2.99609H31.625L26 11.4492V12.9805H27.3086C32.457 12.9805 33 16.1211 33 17.6719C33 22.2148 29.9805 22.9648 29.0625 22.9648C28.1914 22.9648 27.4336 22.4922 26.793 21.9297C26.1484 21.3672 25.6289 20.5977 25.2344 19.6211L22.5508 20.7031C23.0977 22.3164 23.9375 23.5977 25.0742 24.543C26.207 25.4883 27.5352 25.9609 29.0625 25.9609C31.0938 25.9609 32.7461 25.1641 34.0234 23.5742C35.3008 21.9805 35.9375 20.0156 35.9375 17.6758C35.9375 15.3516 34.875 11.1094 30 10.2422L36 1.71094V0H22.7461L18 15.8555L13.2539 0H9.82031L11.3906 5.27734L8.17969 15.8555L3.4375 0H0ZM49 0L47.3125 3.39453C47.3125 3.39453 46.4805 1.89453 45.6562 1.21094C44.875 0.558593 43.8594 -0.0429685 42.5742 0.0859375C41.332 0.210937 39.9336 1.27344 38.9883 3.04687C37.9219 5.0625 37.5547 7.10547 37.5469 9.35937C37.5391 12.5156 38.7344 14.6719 38.7344 14.6719C38.7344 14.6719 38.4609 13.668 38.5039 11.9727C38.5352 10.9141 38.543 9.76562 39.3594 7.38672C40.0469 5.39844 41.6172 3.78516 43.0039 3.50781C44.082 3.28906 44.7695 3.44922 45.8281 4.17187C47.0859 5.03516 48 6.59375 48 6.59375L50 2.92187L49 0ZM36.332 18.3281C36.332 18.3281 36.8203 19.8594 37.125 20.5117C37.2969 20.8867 37.8359 22.0312 38.5977 23.0273C39.3086 23.957 40.6875 25.5586 42.7852 25.918C44.8867 26.2812 46.3281 25.3633 46.6875 25.1406C47.043 24.918 47.7969 24.3047 48.2695 23.8086C48.7695 23.2891 49.2383 22.6289 49.5 22.2344C49.6875 21.9453 50 21.3594 50 21.3594L49.5 18.8125C49.5 18.8125 48.6289 20.3281 48.0859 20.9141C47.543 21.5 46.5703 22.5273 45.375 23.043C44.1758 23.5547 43.543 23.6523 42.3594 23.543C41.1758 23.4297 40.0742 22.7617 39.6875 22.4844C39.3047 22.207 38.3203 21.3867 37.7617 20.6211C37.2031 19.8555 36.332 18.3281 36.332 18.3281Z" fill="white"/>
</svg>
