<svg width="42" height="40" viewBox="0 0 42 40" fill="none" xmlns="http://www.w3.org/2000/svg">
<path d="M41.2207 0.731901C41.2207 0.0636436 41.2207 0 40.5709 0H1.09546C0.445654 0 0.283203 0.0636436 0.283203 0.70008V39.3636C0.283203 40 0.380673 40 0.997986 40H40.5709C41.0908 40 41.2207 39.8727 41.2207 39.3636C41.1883 32.9356 41.2207 26.4757 41.2207 20.0477V0.731901ZM19.03 29.5943L15.8785 22.6571L12.5645 29.5943H8.92557L13.6366 20.2705L9.25047 10.4057L12.9868 10.4375L15.7485 16.8974L19.1275 10.4057H22.6364L17.8928 19.7613L22.6039 29.5943H19.03ZM33.1957 10.7558V28.7669C33.1957 29.2442 33.1307 29.5306 32.6434 29.5625C30.369 29.8488 28.0947 30.1671 25.8529 29.5306C23.4162 28.8624 22.0191 26.9849 21.9216 24.4073C21.7917 21.2251 23.0263 19.0294 25.4305 18.0111C26.9251 17.3747 28.4521 17.3429 30.1741 17.502V10.4375H33.1957V10.7558ZM26.8601 27.1122C27.9323 27.3986 29.0045 27.3031 30.1091 27.1122V20.7478C30.1091 20.6523 29.9792 20.4614 29.8817 20.4296C28.6796 20.2387 27.4449 20.2387 26.3078 20.8433C25.1381 21.4797 24.5208 22.8162 24.6508 24.3755C24.7483 25.8075 25.528 26.7303 26.8601 27.1122Z" fill="white"/>
</svg>
