<svg width="25" height="25" viewBox="0 0 25 25" fill="none" xmlns="http://www.w3.org/2000/svg">
<g clip-path="url(#clip0_480_6597)">
<path d="M18.4927 8.25903H18.4937C20.8779 8.25383 22.1792 9.0258 22.9233 10.2024C23.7007 11.4318 23.937 13.2002 23.937 15.3284V23.5784H19.9858V16.3264C19.9858 15.4259 19.9838 14.2687 19.6167 13.3391C19.4274 12.8599 19.1323 12.4152 18.6724 12.094C18.2114 11.7721 17.6273 11.6038 16.9126 11.6038C16.2114 11.6038 15.6202 11.743 15.1333 12.0139C14.6439 12.2862 14.2886 12.6757 14.0366 13.1282C13.545 14.0111 13.44 15.1478 13.4399 16.2053V23.5784H9.49658V8.64478H13.2437V10.8323H14.1099L14.2505 10.5657C14.7936 9.53782 16.1004 8.40973 18.0864 8.27271L18.4927 8.25903ZM5.39014 8.64478V23.5784H1.43799V8.64478H5.39014ZM3.41553 0.715088C3.82586 0.715088 4.22813 0.821555 4.5835 1.02271L4.73291 1.1145C5.07417 1.34258 5.35001 1.65493 5.53369 2.01978L5.60596 2.17896C5.7629 2.5581 5.81899 2.97092 5.76904 3.37622L5.74072 3.55005C5.66045 3.95242 5.47721 4.32587 5.21045 4.63501L5.09131 4.76392C4.75951 5.09533 4.33648 5.32114 3.87646 5.41235C3.41647 5.5035 2.93947 5.45638 2.50635 5.27661C2.12729 5.11927 1.79654 4.8663 1.54541 4.54419L1.44287 4.40161C1.21518 4.06015 1.08006 3.66639 1.05029 3.25903L1.04443 3.08423C1.04503 2.45577 1.29514 1.85263 1.73975 1.40845C2.12871 1.01994 2.63883 0.780662 3.18115 0.726807L3.41553 0.715088Z" fill="white" stroke="white"/>
</g>
<defs>
<clipPath id="clip0_480_6597">
<rect width="25" height="25" fill="white"/>
</clipPath>
</defs>
</svg>
